<svg version="1.1" viewBox="0.0 0.0 374.1076115485564 191.60892388451444" fill="none" stroke="none" stroke-linecap="square" stroke-miterlimit="10" xmlns:xlink="http://www.w3.org/1999/xlink" xmlns="http://www.w3.org/2000/svg"><clipPath id="p.0"><path d="m0 0l374.1076 0l0 191.60892l-374.1076 0l0 -191.60892z" clip-rule="nonzero"/></clipPath><g clip-path="url(#p.0)"><path fill="#000000" fill-opacity="0.0" d="m0 0l374.1076 0l0 191.60892l-374.1076 0z" fill-rule="evenodd"/><path fill="#000000" fill-opacity="0.0" d="m24.269016 13.4033l270.8088 0l0 43.436653l-270.8088 0z" fill-rule="evenodd"/><path fill="#2fb41d" d="m30.894016 30.751427l0 -10.328127l3.375 0l0 0.65625l-2.453125 0l0 9.000002l2.453125 0l0 0.671875l-3.375 0zm6.231308 -1.8281269l0 -5.875l0.984375 0l0.09375 1.375l0.03125 0q0.46875 -0.71875 1.109375 -1.109375q0.65625 -0.40625 1.453125 -0.40625q0.34375 0 0.609375 0.0625q0.265625 0.046875 0.546875 0.1875l-0.265625 1.015625q-0.296875 -0.09375 -0.515625 -0.140625q-0.21875 -0.046875 -0.5625 -0.046875q-0.625 0 -1.21875 0.359375q-0.578125 0.359375 -1.078125 1.234375l0 3.34375l-1.1875 0zm9.137558 0.140625q-0.5625 0 -1.09375 -0.203125q-0.53125 -0.203125 -0.9375 -0.59375q-0.40625 -0.40625 -0.65625 -0.96875q-0.234375 -0.578125 -0.234375 -1.296875q0 -0.734375 0.234375 -1.3125q0.25 -0.578125 0.65625 -0.96875q0.40625 -0.40625 0.9375 -0.609375q0.53125 -0.203125 1.09375 -0.203125q0.578125 0 1.109375 0.203125q0.53125 0.203125 0.9375 0.609375q0.40625 0.390625 0.640625 0.96875q0.25 0.578125 0.25 1.3125q0 0.71875 -0.25 1.296875q-0.234375 0.5625 -0.640625 0.96875q-0.40625 0.390625 -0.9375 0.59375q-0.53125 0.203125 -1.109375 0.203125zm0 -0.96875q0.796875 0 1.25 -0.578125q0.453125 -0.578125 0.453125 -1.515625q0 -0.953125 -0.453125 -1.53125q-0.453125 -0.578125 -1.25 -0.578125q-0.78125 0 -1.25 0.578125q-0.453125 0.578125 -0.453125 1.53125q0 0.9375 0.453125 1.515625q0.46875 0.578125 1.25 0.578125zm7.200058 0.96875q-0.5625 0 -1.09375 -0.203125q-0.53125 -0.203125 -0.9375 -0.59375q-0.40625 -0.40625 -0.65625 -0.96875q-0.234375 -0.578125 -0.234375 -1.296875q0 -0.734375 0.234375 -1.3125q0.25 -0.578125 0.65625 -0.96875q0.40625 -0.40625 0.9375 -0.609375q0.53125 -0.203125 1.09375 -0.203125q0.578125 0 1.109375 0.203125q0.53125 0.203125 0.9375 0.609375q0.40625 0.390625 0.640625 0.96875q0.25 0.578125 0.25 1.3125q0 0.71875 -0.25 1.296875q-0.234375 0.5625 -0.640625 0.96875q-0.40625 0.390625 -0.9375 0.59375q-0.53125 0.203125 -1.109375 0.203125zm0 -0.96875q0.796875 0 1.25 -0.578125q0.453125 -0.578125 0.453125 -1.515625q0 -0.953125 -0.453125 -1.53125q-0.453125 -0.578125 -1.25 -0.578125q-0.78125 0 -1.25 0.578125q-0.453125 0.578125 -0.453125 1.53125q0 0.9375 0.453125 1.515625q0.46875 0.578125 1.25 0.578125zm8.309433 0.96875q-0.640625 0 -1.09375 -0.171875q-0.453125 -0.1875 -0.734375 -0.5q-0.265625 -0.328125 -0.390625 -0.78125q-0.109375 -0.453125 -0.109375 -1.0l0 -2.59375l-1.609375 0l0 -0.90625l1.65625 -0.0625l0.15625 -1.859375l0.984375 0l0 1.859375l2.78125 0l0 0.96875l-2.78125 0l0 2.59375q0 0.75 0.296875 1.125q0.3125 0.375 1.125 0.375q0.375 0 0.703125 -0.0625q0.328125 -0.078125 0.640625 -0.1875l0.234375 0.875q-0.390625 0.125 -0.84375 0.21875q-0.4375 0.109375 -1.015625 0.109375zm6.575054 1.5937519q-0.703125 0 -1.34375 -0.296875q-0.640625 -0.296875 -1.140625 -0.90625q-0.484375 -0.5937519 -0.765625 -1.4843769q-0.28125 -0.890625 -0.28125 -2.0625q0 -1.15625 0.265625 -2.03125q0.28125 -0.875 0.75 -1.453125q0.484375 -0.578125 1.125 -0.859375q0.65625 -0.296875 1.390625 -0.296875q0.640625 0 1.109375 0.21875q0.46875 0.21875 0.765625 0.609375q0.3125 0.390625 0.453125 0.921875q0.15625 0.515625 0.15625 1.125l0 3.578125l-0.6875 0l-0.09375 -0.671875l-0.046875 0q-0.25 0.34375 -0.671875 0.578125q-0.40625 0.234375 -0.875 0.234375q-0.328125 0 -0.609375 -0.109375q-0.28125 -0.109375 -0.5 -0.3125q-0.203125 -0.21875 -0.328125 -0.515625q-0.109375 -0.296875 -0.109375 -0.65625q0 -0.9375 0.8125 -1.40625q0.8125 -0.46875 2.3125 -0.65625l0 -0.171875q0 -0.40625 -0.109375 -0.765625q-0.09375 -0.359375 -0.3125 -0.625q-0.203125 -0.28125 -0.53125 -0.4375q-0.328125 -0.171875 -0.78125 -0.171875q-0.5 0 -0.984375 0.25q-0.46875 0.234375 -0.84375 0.71875q-0.359375 0.484375 -0.578125 1.234375q-0.21875 0.734375 -0.21875 1.71875q0 0.953125 0.21875 1.6875q0.21875 0.734375 0.578125 1.234375q0.359375 0.5 0.84375 0.7500019q0.5 0.265625 1.0625 0.265625q0.546875 0 0.9375 -0.140625q0.390625 -0.125 0.734375 -0.3750019l0.390625 0.6250019q-0.484375 0.3125 -0.984375 0.484375q-0.5 0.171875 -1.109375 0.171875zm0.359375 -3.609377q0.609375 0 1.21875 -0.6875l0 -1.390625q-0.5625 0.078125 -0.96875 0.203125q-0.390625 0.109375 -0.640625 0.265625q-0.25 0.140625 -0.375 0.34375q-0.109375 0.203125 -0.109375 0.453125q0 0.390625 0.234375 0.609375q0.234375 0.203125 0.640625 0.203125zm5.715683 1.875l-2.40625 -5.875l1.203125 0l1.234375 3.203125q0.171875 0.4375 0.3125 0.875q0.15625 0.421875 0.3125 0.859375l0.046875 0q0.15625 -0.4375 0.296875 -0.859375q0.15625 -0.4375 0.3125 -0.875l1.25 -3.203125l1.125 0l-2.34375 5.875l-1.34375 0zm4.871933 0l0 -5.875l0.9375 0l0.09375 0.78125l0.03125 0q0.203125 -0.40625 0.5 -0.65625q0.3125 -0.265625 0.8125 -0.265625q0.84375 0 1.078125 1.015625q0.234375 -0.453125 0.546875 -0.734375q0.3125 -0.28125 0.8125 -0.28125q0.625 0 0.96875 0.484375q0.34375 0.46875 0.34375 1.359375l0 4.171875l-1.171875 0l0 -4.09375q0 -0.890625 -0.53125 -0.890625q-0.28125 0 -0.46875 0.203125q-0.171875 0.203125 -0.375 0.609375l0 4.171875l-1.03125 0l0 -4.09375q0 -0.890625 -0.53125 -0.890625q-0.28125 0 -0.46875 0.203125q-0.1875 0.203125 -0.390625 0.609375l0 4.171875l-1.15625 0zm10.246933 0.140625q-0.84375 0 -1.59375 -0.265625q-0.734375 -0.265625 -1.28125 -0.640625l0.53125 -0.765625q0.515625 0.359375 1.125 0.5625q0.609375 0.203125 1.375 0.203125q0.6875 0 1.0 -0.234375q0.328125 -0.234375 0.328125 -0.578125q0 -0.15625 -0.0625 -0.28125q-0.046875 -0.125 -0.234375 -0.234375q-0.1875 -0.125 -0.53125 -0.234375q-0.328125 -0.109375 -0.890625 -0.234375q-1.15625 -0.234375 -1.71875 -0.640625q-0.5625 -0.421875 -0.5625 -1.09375q0 -0.375 0.15625 -0.6875q0.171875 -0.3125 0.484375 -0.53125q0.328125 -0.234375 0.796875 -0.359375q0.46875 -0.140625 1.078125 -0.140625q0.703125 0 1.328125 0.234375q0.625 0.234375 1.078125 0.53125l-0.5625 0.75q-0.421875 -0.28125 -0.921875 -0.4375q-0.484375 -0.15625 -1.03125 -0.15625q-0.671875 0 -0.9375 0.21875q-0.265625 0.203125 -0.265625 0.515625q0 0.34375 0.359375 0.53125q0.375 0.1875 1.234375 0.359375q0.734375 0.15625 1.1875 0.34375q0.46875 0.171875 0.734375 0.390625q0.265625 0.21875 0.375 0.484375q0.109375 0.265625 0.109375 0.609375q0 0.375 -0.1875 0.703125q-0.171875 0.3125 -0.515625 0.5625q-0.34375 0.25 -0.84375 0.375q-0.5 0.140625 -1.140625 0.140625zm7.371933 0q-0.609375 0 -1.15625 -0.21875q-0.546875 -0.21875 -0.953125 -0.671875q-0.390625 -0.46875 -0.625 -1.15625q-0.234375 -0.703125 -0.234375 -1.65625q0 -1.125 0.265625 -1.921875q0.28125 -0.8125 0.71875 -1.3125q0.4375 -0.515625 1.015625 -0.75q0.59375 -0.234375 1.21875 -0.234375q0.734375 0 1.28125 0.25q0.546875 0.234375 0.9375 0.578125l-0.65625 0.734375q-0.28125 -0.265625 -0.671875 -0.421875q-0.390625 -0.171875 -0.8125 -0.171875q-0.421875 0 -0.8125 0.15625q-0.390625 0.15625 -0.703125 0.515625q-0.296875 0.359375 -0.484375 0.953125q-0.1875 0.578125 -0.1875 1.4375q0.453125 -0.453125 1.0 -0.703125q0.546875 -0.25 1.078125 -0.25q0.515625 0 0.953125 0.140625q0.4375 0.140625 0.75 0.453125q0.328125 0.296875 0.5 0.75q0.171875 0.4375 0.171875 1.015625q0 0.5625 -0.203125 1.03125q-0.203125 0.453125 -0.578125 0.78125q-0.359375 0.3125 -0.828125 0.5q-0.46875 0.171875 -0.984375 0.171875zm-0.015625 -0.921875q0.3125 0 0.578125 -0.109375q0.28125 -0.109375 0.484375 -0.296875q0.203125 -0.203125 0.3125 -0.5q0.125 -0.296875 0.125 -0.65625q0 -0.734375 -0.390625 -1.109375q-0.390625 -0.375 -1.109375 -0.375q-0.421875 0 -0.90625 0.21875q-0.484375 0.21875 -0.90625 0.734375q0.125 1.078125 0.59375 1.59375q0.46875 0.5 1.21875 0.5zm6.996933 0.921875q-0.65625 0 -1.1875 -0.15625q-0.515625 -0.15625 -0.890625 -0.421875q-0.359375 -0.28125 -0.5625 -0.671875q-0.1875 -0.390625 -0.1875 -0.84375q0 -0.390625 0.125 -0.6875q0.140625 -0.3125 0.359375 -0.546875q0.234375 -0.25 0.515625 -0.421875q0.28125 -0.1875 0.59375 -0.34375l0 -0.046875q-0.484375 -0.3125 -0.828125 -0.734375q-0.328125 -0.4375 -0.328125 -1.046875q0 -0.453125 0.171875 -0.828125q0.1875 -0.375 0.515625 -0.625q0.328125 -0.265625 0.765625 -0.40625q0.4375 -0.140625 0.96875 -0.140625q0.5625 0 1.0 0.15625q0.453125 0.140625 0.765625 0.40625q0.3125 0.265625 0.484375 0.65625q0.171875 0.375 0.171875 0.828125q0 0.53125 -0.34375 1.0q-0.34375 0.46875 -0.8125 0.78125l0 0.046875q0.3125 0.15625 0.578125 0.34375q0.265625 0.171875 0.46875 0.40625q0.21875 0.234375 0.328125 0.546875q0.109375 0.296875 0.109375 0.6875q0 0.4375 -0.1875 0.8125q-0.1875 0.375 -0.546875 0.65625q-0.34375 0.28125 -0.875 0.4375q-0.515625 0.15625 -1.171875 0.15625zm0.578125 -4.375q0.84375 -0.671875 0.84375 -1.421875q0 -0.546875 -0.375 -0.90625q-0.359375 -0.359375 -1.03125 -0.359375q-0.59375 0 -0.96875 0.296875q-0.375 0.296875 -0.375 0.84375q0 0.3125 0.140625 0.546875q0.15625 0.234375 0.40625 0.421875q0.25 0.171875 0.59375 0.3125q0.359375 0.125 0.765625 0.265625zm-0.5625 3.515625q0.78125 0 1.203125 -0.328125q0.4375 -0.328125 0.4375 -0.90625q0 -0.359375 -0.171875 -0.609375q-0.171875 -0.25 -0.484375 -0.421875q-0.3125 -0.1875 -0.71875 -0.328125q-0.40625 -0.140625 -0.875 -0.3125q-0.515625 0.28125 -0.84375 0.65625q-0.328125 0.359375 -0.328125 0.890625q0 0.609375 0.484375 0.984375q0.484375 0.375 1.296875 0.375zm15.400116 -2.3125q-0.359375 0 -0.640625 -0.15625q-0.28125 -0.15625 -0.53125 -0.328125q-0.234375 -0.1875 -0.46875 -0.34375q-0.21875 -0.15625 -0.46875 -0.15625q-0.28125 0 -0.515625 0.21875q-0.234375 0.203125 -0.4375 0.796875l-0.734375 -0.328125q0.328125 -0.875 0.765625 -1.21875q0.453125 -0.34375 0.953125 -0.34375q0.359375 0 0.640625 0.15625q0.28125 0.15625 0.515625 0.34375q0.234375 0.171875 0.46875 0.328125q0.234375 0.15625 0.484375 0.15625q0.265625 0 0.5 -0.203125q0.234375 -0.203125 0.4375 -0.8125l0.75 0.34375q-0.328125 0.859375 -0.78125 1.203125q-0.4375 0.34375 -0.9375 0.34375zm3.762558 4.859377l0 -0.671875l2.4375 0l0 -9.000002l-2.4375 0l0 -0.65625l3.375 0l0 10.328127l-3.375 0zm9.887558 -1.8281269l0.296875 -2.40625l-1.515625 0l-0.28125 2.40625l-0.75 0l0.296875 -2.40625l-0.9375 0l0 -0.78125l1.046875 0l0.203125 -1.671875l-1.015625 0l0 -0.796875l1.109375 0l0.265625 -2.140625l0.734375 0l-0.265625 2.140625l1.5 0l0.265625 -2.140625l0.734375 0l-0.265625 2.140625l0.96875 0l0 0.796875l-1.0625 0l-0.203125 1.671875l1.015625 0l0 0.78125l-1.109375 0l-0.296875 2.40625l-0.734375 0zm0.390625 -3.1875l0.203125 -1.671875l-1.515625 0l-0.203125 1.671875l1.515625 0z" fill-rule="nonzero"/><path fill="#000000" d="m147.61057 29.063925q-0.6875 0 -1.28125 -0.203125q-0.59375 -0.203125 -1.03125 -0.59375q-0.421875 -0.40625 -0.671875 -0.96875q-0.25 -0.578125 -0.25 -1.296875q0 -0.734375 0.265625 -1.3125q0.265625 -0.578125 0.71875 -0.96875q0.46875 -0.40625 1.0625 -0.609375q0.59375 -0.203125 1.265625 -0.203125q0.71875 0 1.25 0.25q0.546875 0.25 0.90625 0.59375l-0.578125 0.75q-0.34375 -0.28125 -0.71875 -0.4375q-0.375 -0.171875 -0.8125 -0.171875q-0.46875 0 -0.859375 0.15625q-0.390625 0.140625 -0.671875 0.421875q-0.28125 0.28125 -0.4375 0.671875q-0.15625 0.390625 -0.15625 0.859375q0 0.46875 0.140625 0.859375q0.15625 0.375 0.4375 0.65625q0.28125 0.28125 0.65625 0.4375q0.390625 0.140625 0.859375 0.140625q0.546875 0 0.96875 -0.203125q0.421875 -0.203125 0.765625 -0.5l0.515625 0.78125q-0.5 0.421875 -1.109375 0.65625q-0.59375 0.234375 -1.234375 0.234375zm5.950058 0q-0.421875 0 -0.796875 -0.125q-0.359375 -0.109375 -0.625 -0.328125q-0.25 -0.234375 -0.40625 -0.53125q-0.15625 -0.3125 -0.15625 -0.703125q0 -0.5 0.234375 -0.859375q0.234375 -0.375 0.734375 -0.640625q0.5 -0.265625 1.28125 -0.421875q0.796875 -0.171875 1.890625 -0.265625q-0.015625 -0.53125 -0.34375 -0.921875q-0.328125 -0.390625 -1.109375 -0.390625q-0.546875 0 -1.0625 0.21875q-0.5 0.203125 -0.9375 0.453125l-0.4375 -0.8125q0.234375 -0.140625 0.53125 -0.28125q0.296875 -0.15625 0.640625 -0.28125q0.34375 -0.125 0.703125 -0.1875q0.375 -0.078125 0.765625 -0.078125q1.21875 0 1.828125 0.671875q0.609375 0.65625 0.609375 1.8125l0 3.53125l-0.96875 0l-0.09375 -0.75l-0.03125 0q-0.46875 0.359375 -1.0625 0.625q-0.578125 0.265625 -1.1875 0.265625zm0.34375 -0.9375q0.46875 0 0.90625 -0.203125q0.453125 -0.21875 0.90625 -0.578125l0 -1.390625q-0.859375 0.0625 -1.4375 0.1875q-0.578125 0.109375 -0.921875 0.28125q-0.328125 0.171875 -0.484375 0.390625q-0.140625 0.21875 -0.140625 0.484375q0 0.4375 0.34375 0.640625q0.34375 0.1875 0.828125 0.1875zm8.668808 0.9375q-0.640625 0 -1.09375 -0.171875q-0.453125 -0.1875 -0.734375 -0.5q-0.265625 -0.328125 -0.390625 -0.78125q-0.109375 -0.453125 -0.109375 -1.0l0 -2.59375l-1.609375 0l0 -0.90625l1.65625 -0.0625l0.15625 -1.859375l0.984375 0l0 1.859375l2.78125 0l0 0.96875l-2.78125 0l0 2.59375q0 0.75 0.296875 1.125q0.3125 0.375 1.125 0.375q0.375 0 0.703125 -0.0625q0.328125 -0.078125 0.640625 -0.1875l0.234375 0.875q-0.390625 0.125 -0.84375 0.21875q-0.4375 0.109375 -1.015625 0.109375zm10.806366 1.7812519l3.9375 -10.437502l1.03125 0l-3.9375 10.437502l-1.03125 0zm10.043808 -1.7812519q-0.671875 0 -1.25 -0.203125q-0.5625 -0.203125 -1.0 -0.59375q-0.4375 -0.40625 -0.6875 -0.96875q-0.234375 -0.578125 -0.234375 -1.3125q0 -0.71875 0.25 -1.28125q0.25 -0.578125 0.65625 -0.96875q0.421875 -0.40625 0.953125 -0.609375q0.546875 -0.21875 1.140625 -0.21875q0.640625 0 1.140625 0.203125q0.515625 0.203125 0.859375 0.578125q0.34375 0.359375 0.515625 0.875q0.1875 0.5 0.1875 1.125q0 0.1875 -0.015625 0.359375q-0.015625 0.15625 -0.03125 0.28125l-4.46875 0q0.09375 0.90625 0.6875 1.359375q0.59375 0.4375 1.453125 0.4375q0.5 0 0.90625 -0.125q0.40625 -0.140625 0.796875 -0.390625l0.421875 0.765625q-0.453125 0.296875 -1.03125 0.5q-0.5625 0.1875 -1.25 0.1875zm-0.140625 -5.21875q-0.328125 0 -0.640625 0.109375q-0.296875 0.09375 -0.53125 0.296875q-0.234375 0.203125 -0.40625 0.515625q-0.171875 0.296875 -0.25 0.6875l3.421875 0q-0.046875 -0.796875 -0.484375 -1.203125q-0.421875 -0.40625 -1.109375 -0.40625zm8.090683 5.21875q-0.640625 0 -1.09375 -0.171875q-0.453125 -0.1875 -0.734375 -0.5q-0.265625 -0.328125 -0.390625 -0.78125q-0.109375 -0.453125 -0.109375 -1.0l0 -2.59375l-1.609375 0l0 -0.90625l1.65625 -0.0625l0.15625 -1.859375l0.984375 0l0 1.859375l2.78125 0l0 0.96875l-2.78125 0l0 2.59375q0 0.75 0.296875 1.125q0.3125 0.375 1.125 0.375q0.375 0 0.703125 -0.0625q0.328125 -0.078125 0.640625 -0.1875l0.234375 0.875q-0.390625 0.125 -0.84375 0.21875q-0.4375 0.109375 -1.015625 0.109375zm6.637558 0q-0.6875 0 -1.28125 -0.203125q-0.59375 -0.203125 -1.03125 -0.59375q-0.421875 -0.40625 -0.671875 -0.96875q-0.25 -0.578125 -0.25 -1.296875q0 -0.734375 0.265625 -1.3125q0.265625 -0.578125 0.71875 -0.96875q0.46875 -0.40625 1.0625 -0.609375q0.59375 -0.203125 1.265625 -0.203125q0.71875 0 1.25 0.25q0.546875 0.25 0.90625 0.59375l-0.578125 0.75q-0.34375 -0.28125 -0.71875 -0.4375q-0.375 -0.171875 -0.8125 -0.171875q-0.46875 0 -0.859375 0.15625q-0.390625 0.140625 -0.671875 0.421875q-0.28125 0.28125 -0.4375 0.671875q-0.15625 0.390625 -0.15625 0.859375q0 0.46875 0.140625 0.859375q0.15625 0.375 0.4375 0.65625q0.28125 0.28125 0.65625 0.4375q0.390625 0.140625 0.859375 0.140625q0.546875 0 0.96875 -0.203125q0.421875 -0.203125 0.765625 -0.5l0.515625 0.78125q-0.5 0.421875 -1.109375 0.65625q-0.59375 0.234375 -1.234375 0.234375zm4.168808 1.7812519l3.9375 -10.437502l1.03125 0l-3.9375 10.437502l-1.03125 0zm10.043808 -1.7812519q-0.671875 0 -1.25 -0.203125q-0.5625 -0.203125 -1.0 -0.59375q-0.4375 -0.40625 -0.6875 -0.96875q-0.234375 -0.578125 -0.234375 -1.3125q0 -0.71875 0.25 -1.28125q0.25 -0.578125 0.65625 -0.96875q0.421875 -0.40625 0.953125 -0.609375q0.546875 -0.21875 1.140625 -0.21875q0.640625 0 1.140625 0.203125q0.515625 0.203125 0.859375 0.578125q0.34375 0.359375 0.515625 0.875q0.1875 0.5 0.1875 1.125q0 0.1875 -0.015625 0.359375q-0.015625 0.15625 -0.03125 0.28125l-4.46875 0q0.09375 0.90625 0.6875 1.359375q0.59375 0.4375 1.453125 0.4375q0.5 0 0.90625 -0.125q0.40625 -0.140625 0.796875 -0.390625l0.421875 0.765625q-0.453125 0.296875 -1.03125 0.5q-0.5625 0.1875 -1.25 0.1875zm-0.140625 -5.21875q-0.328125 0 -0.640625 0.109375q-0.296875 0.09375 -0.53125 0.296875q-0.234375 0.203125 -0.40625 0.515625q-0.171875 0.296875 -0.25 0.6875l3.421875 0q-0.046875 -0.796875 -0.484375 -1.203125q-0.421875 -0.40625 -1.109375 -0.40625zm4.075058 5.078125l2.1875 -3.046875l-2.03125 -2.828125l1.296875 0l0.84375 1.203125q0.15625 0.25 0.328125 0.515625q0.171875 0.25 0.328125 0.484375l0.0625 0q0.15625 -0.234375 0.3125 -0.5q0.15625 -0.265625 0.296875 -0.515625l0.78125 -1.1875l1.265625 0l-2.046875 2.953125l2.1875 2.921875l-1.296875 0l-0.9375 -1.25q-0.15625 -0.25 -0.359375 -0.515625q-0.1875 -0.28125 -0.375 -0.53125l-0.046875 0q-0.171875 0.25 -0.34375 0.515625q-0.171875 0.25 -0.328125 0.53125l-0.875 1.25l-1.25 0zm7.575058 2.406252l0 -8.281252l0.96875 0l0.09375 0.734375l0.03125 0q0.40625 -0.390625 0.921875 -0.625q0.515625 -0.25 1.03125 -0.25q0.578125 0 1.03125 0.21875q0.453125 0.203125 0.75 0.59375q0.3125 0.390625 0.46875 0.953125q0.171875 0.546875 0.171875 1.21875q0 0.765625 -0.21875 1.359375q-0.21875 0.578125 -0.59375 0.984375q-0.359375 0.40625 -0.84375 0.625q-0.46875 0.203125 -0.984375 0.203125q-0.40625 0 -0.859375 -0.1875q-0.4375 -0.1875 -0.8125 -0.53125l-0.03125 0l0.0625 1.0625019l0 1.921875l-1.1875 0zm2.59375 -3.250002q0.71875 0 1.171875 -0.546875q0.46875 -0.5625 0.46875 -1.625q0 -0.921875 -0.359375 -1.453125q-0.359375 -0.546875 -1.140625 -0.546875q-0.359375 0 -0.765625 0.1875q-0.390625 0.1875 -0.78125 0.609375l0 2.765625q0.359375 0.34375 0.75 0.484375q0.390625 0.125 0.65625 0.125zm7.137558 0.984375q-0.5625 0 -1.09375 -0.203125q-0.53125 -0.203125 -0.9375 -0.59375q-0.40625 -0.40625 -0.65625 -0.96875q-0.234375 -0.578125 -0.234375 -1.296875q0 -0.734375 0.234375 -1.3125q0.25 -0.578125 0.65625 -0.96875q0.40625 -0.40625 0.9375 -0.609375q0.53125 -0.203125 1.09375 -0.203125q0.578125 0 1.109375 0.203125q0.53125 0.203125 0.9375 0.609375q0.40625 0.390625 0.640625 0.96875q0.25 0.578125 0.25 1.3125q0 0.71875 -0.25 1.296875q-0.234375 0.5625 -0.640625 0.96875q-0.40625 0.390625 -0.9375 0.59375q-0.53125 0.203125 -1.109375 0.203125zm0 -0.96875q0.796875 0 1.25 -0.578125q0.453125 -0.578125 0.453125 -1.515625q0 -0.953125 -0.453125 -1.53125q-0.453125 -0.578125 -1.25 -0.578125q-0.78125 0 -1.25 0.578125q-0.453125 0.578125 -0.453125 1.53125q0 0.9375 0.453125 1.515625q0.46875 0.578125 1.25 0.578125zm5.262558 0.828125l0 -5.875l0.984375 0l0.09375 1.375l0.03125 0q0.46875 -0.71875 1.109375 -1.109375q0.65625 -0.40625 1.453125 -0.40625q0.34375 0 0.609375 0.0625q0.265625 0.046875 0.546875 0.1875l-0.265625 1.015625q-0.296875 -0.09375 -0.515625 -0.140625q-0.21875 -0.046875 -0.5625 -0.046875q-0.625 0 -1.21875 0.359375q-0.578125 0.359375 -1.078125 1.234375l0 3.34375l-1.1875 0zm10.246933 0.140625q-0.640625 0 -1.09375 -0.171875q-0.453125 -0.1875 -0.734375 -0.5q-0.265625 -0.328125 -0.390625 -0.78125q-0.109375 -0.453125 -0.109375 -1.0l0 -2.59375l-1.609375 0l0 -0.90625l1.65625 -0.0625l0.15625 -1.859375l0.984375 0l0 1.859375l2.78125 0l0 0.96875l-2.78125 0l0 2.59375q0 0.75 0.296875 1.125q0.3125 0.375 1.125 0.375q0.375 0 0.703125 -0.0625q0.328125 -0.078125 0.640625 -0.1875l0.234375 0.875q-0.390625 0.125 -0.84375 0.21875q-0.4375 0.109375 -1.015625 0.109375zm6.168808 0q-0.84375 0 -1.59375 -0.265625q-0.734375 -0.265625 -1.28125 -0.640625l0.53125 -0.765625q0.515625 0.359375 1.125 0.5625q0.609375 0.203125 1.375 0.203125q0.6875 0 1.0000153 -0.234375q0.328125 -0.234375 0.328125 -0.578125q0 -0.15625 -0.0625 -0.28125q-0.046875 -0.125 -0.234375 -0.234375q-0.1875 -0.125 -0.53126526 -0.234375q-0.328125 -0.109375 -0.890625 -0.234375q-1.15625 -0.234375 -1.71875 -0.640625q-0.5625 -0.421875 -0.5625 -1.09375q0 -0.375 0.15625 -0.6875q0.171875 -0.3125 0.484375 -0.53125q0.328125 -0.234375 0.796875 -0.359375q0.46875 -0.140625 1.078125 -0.140625q0.703125 0 1.3281403 0.234375q0.625 0.234375 1.078125 0.53125l-0.5625 0.75q-0.421875 -0.28125 -0.921875 -0.4375q-0.48439026 -0.15625 -1.0312653 -0.15625q-0.671875 0 -0.9375 0.21875q-0.265625 0.203125 -0.265625 0.515625q0 0.34375 0.359375 0.53125q0.375 0.1875 1.234375 0.359375q0.73439026 0.15625 1.1875153 0.34375q0.46875 0.171875 0.734375 0.390625q0.265625 0.21875 0.375 0.484375q0.109375 0.265625 0.109375 0.609375q0 0.375 -0.1875 0.703125q-0.171875 0.3125 -0.515625 0.5625q-0.34375 0.25 -0.84375 0.375q-0.50001526 0.140625 -1.1406403 0.140625z" fill-rule="nonzero"/><path fill="#ff0000" d="m29.378391 47.845177l3.9375 -10.4375l1.03125 0l-3.9375 10.4375l-1.03125 0zm8.981308 -1.78125q-0.421875 0 -0.796875 -0.125q-0.359375 -0.109375 -0.625 -0.328125q-0.25 -0.234375 -0.40625 -0.53125q-0.15625 -0.3125 -0.15625 -0.703125q0 -0.5 0.234375 -0.859375q0.234375 -0.375 0.734375 -0.640625q0.5 -0.265625 1.28125 -0.421875q0.796875 -0.171875 1.890625 -0.265625q-0.015625 -0.53125 -0.34375 -0.921875q-0.328125 -0.390625 -1.109375 -0.390625q-0.546875 0 -1.0625 0.21875q-0.5 0.203125 -0.9375 0.453125l-0.4375 -0.8125q0.234375 -0.140625 0.53125 -0.28125q0.296875 -0.15625 0.640625 -0.28125q0.34375 -0.125 0.703125 -0.1875q0.375 -0.078125 0.765625 -0.078125q1.21875 0 1.828125 0.671875q0.609375 0.65625 0.609375 1.8125l0 3.53125l-0.96875 0l-0.09375 -0.75l-0.03125 0q-0.46875 0.359375 -1.0625 0.625q-0.578125 0.265625 -1.1875 0.265625zm0.34375 -0.9375q0.46875 0 0.90625 -0.203125q0.453125 -0.21875 0.90625 -0.578125l0 -1.390625q-0.859375 0.0625 -1.4375 0.1875q-0.578125 0.109375 -0.921875 0.28125q-0.328125 0.171875 -0.484375 0.390625q-0.140625 0.21875 -0.140625 0.484375q0 0.4375 0.34375 0.640625q0.34375 0.1875 0.828125 0.1875zm6.856308 0.9375q-0.421875 0 -0.796875 -0.125q-0.359375 -0.109375 -0.625 -0.328125q-0.25 -0.234375 -0.40625 -0.53125q-0.15625 -0.3125 -0.15625 -0.703125q0 -0.5 0.234375 -0.859375q0.234375 -0.375 0.734375 -0.640625q0.5 -0.265625 1.28125 -0.421875q0.796875 -0.171875 1.890625 -0.265625q-0.015625 -0.53125 -0.34375 -0.921875q-0.328125 -0.390625 -1.109375 -0.390625q-0.546875 0 -1.0625 0.21875q-0.5 0.203125 -0.9375 0.453125l-0.4375 -0.8125q0.234375 -0.140625 0.53125 -0.28125q0.296875 -0.15625 0.640625 -0.28125q0.34375 -0.125 0.703125 -0.1875q0.375 -0.078125 0.765625 -0.078125q1.21875 0 1.828125 0.671875q0.609375 0.65625 0.609375 1.8125l0 3.53125l-0.96875 0l-0.09375 -0.75l-0.03125 0q-0.46875 0.359375 -1.0625 0.625q-0.578125 0.265625 -1.1875 0.265625zm0.34375 -0.9375q0.46875 0 0.90625 -0.203125q0.453125 -0.21875 0.90625 -0.578125l0 -1.390625q-0.859375 0.0625 -1.4375 0.1875q-0.578125 0.109375 -0.921875 0.28125q-0.328125 0.171875 -0.484375 0.390625q-0.140625 0.21875 -0.140625 0.484375q0 0.4375 0.34375 0.640625q0.34375 0.1875 0.828125 0.1875z" fill-rule="nonzero"/><path fill="#1155cc" d="m80.84129 44.657677l-0.578125 -0.40625l1.28125 -1.953125l-1.921875 -0.84375l0.203125 -0.625l2.0 0.625l0.109375 -2.234375l0.671875 0l0.109375 2.234375l2.0 -0.625l0.203125 0.625l-1.921875 0.84375l1.28125 1.953125l-0.578125 0.40625l-1.4375 -1.859375l-1.421875 1.859375z" fill-rule="nonzero"/><path fill="#000000" d="m90.93198 48.032677q-1.234375 -0.984375 -1.953125 -2.34375q-0.703125 -1.359375 -0.703125 -3.109375q0 -1.734375 0.703125 -3.09375q0.71875 -1.359375 1.953125 -2.34375l0.65625 0.5625q-1.171875 1.03125 -1.734375 2.21875q-0.546875 1.171875 -0.546875 2.65625q0 1.5 0.546875 2.6875q0.5625 1.1875 1.734375 2.203125l-0.65625 0.5625z" fill-rule="nonzero"/><path fill="#741b47" d="m94.725784 45.9233l0 -5.875l0.984375 0l0.09375 1.375l0.03125 0q0.46875 -0.71875 1.109375 -1.109375q0.65625 -0.40625 1.453125 -0.40625q0.34375 0 0.609375 0.0625q0.265625 0.046875 0.546875 0.1875l-0.265625 1.015625q-0.296875 -0.09375 -0.515625 -0.140625q-0.21875 -0.046875 -0.5625 -0.046875q-0.625 0 -1.21875 0.359375q-0.578125 0.359375 -1.078125 1.234375l0 3.34375l-1.1875 0zm6.825058 0l-1.203125 -5.875l1.1875 0l0.59375 3.234375q0.078125 0.421875 0.125 0.828125q0.0625 0.390625 0.125 0.8125l0.046875 0q0.0625 -0.421875 0.140625 -0.8125q0.078125 -0.40625 0.171875 -0.828125l0.640625 -2.75l1.046875 0l0.625 2.75q0.109375 0.421875 0.1875 0.828125q0.09375 0.390625 0.15625 0.8125l0.046875 0q0.078125 -0.421875 0.125 -0.8125q0.046875 -0.40625 0.109375 -0.828125l0.609375 -3.234375l1.09375 0l-1.15625 5.875l-1.484375 0l-0.5625 -2.5625q-0.078125 -0.328125 -0.15625 -0.75q-0.0625 -0.4375 -0.125 -0.984375l-0.046875 0q-0.0625 0.5 -0.125 0.9375q-0.0625 0.421875 -0.140625 0.796875l-0.5625 2.5625l-1.46875 0z" fill-rule="nonzero"/><path fill="#000000" d="m110.110275 48.4858l-0.328125 -0.71875q0.765625 -0.3125 1.125 -0.78125q0.375 -0.46875 0.40625 -1.140625q-0.046875 0.015625 -0.09375 0.015625q-0.046875 0 -0.109375 0q-0.40625 0 -0.71875 -0.234375q-0.3125 -0.25 -0.3125 -0.75q0 -0.484375 0.3125 -0.734375q0.3125 -0.265625 0.75 -0.265625q0.578125 0 0.875 0.453125q0.296875 0.4375 0.296875 1.21875q0 1.09375 -0.578125 1.828125q-0.5625 0.75 -1.625 1.109375zm7.450058 -2.421875q-0.421875 0 -0.796875 -0.125q-0.359375 -0.109375 -0.625 -0.328125q-0.25 -0.234375 -0.40625 -0.53125q-0.15625 -0.3125 -0.15625 -0.703125q0 -0.5 0.234375 -0.859375q0.234375 -0.375 0.734375 -0.640625q0.5 -0.265625 1.28125 -0.421875q0.796875 -0.171875 1.890625 -0.265625q-0.015625 -0.53125 -0.34375 -0.921875q-0.328125 -0.390625 -1.109375 -0.390625q-0.546875 0 -1.0625 0.21875q-0.5 0.203125 -0.9375 0.453125l-0.4375 -0.8125q0.234375 -0.140625 0.53125 -0.28125q0.296875 -0.15625 0.640625 -0.28125q0.34375 -0.125 0.703125 -0.1875q0.375 -0.078125 0.765625 -0.078125q1.21875 0 1.828125 0.671875q0.609375 0.65625 0.609375 1.8125l0 3.53125l-0.96875 0l-0.09375 -0.75l-0.03125 0q-0.46875 0.359375 -1.0625 0.625q-0.578125 0.265625 -1.1875 0.265625zm0.34375 -0.9375q0.46875 0 0.90625 -0.203125q0.453125 -0.21875 0.90625 -0.578125l0 -1.390625q-0.859375 0.0625 -1.4375 0.1875q-0.578125 0.109375 -0.921875 0.28125q-0.328125 0.171875 -0.484375 0.390625q-0.140625 0.21875 -0.140625 0.484375q0 0.4375 0.34375 0.640625q0.34375 0.1875 0.828125 0.1875zm7.637558 0.9375q-0.84375 0 -1.59375 -0.265625q-0.734375 -0.265625 -1.28125 -0.640625l0.53125 -0.765625q0.515625 0.359375 1.125 0.5625q0.609375 0.203125 1.375 0.203125q0.6875 0 1.0 -0.234375q0.328125 -0.234375 0.328125 -0.578125q0 -0.15625 -0.0625 -0.28125q-0.046875 -0.125 -0.234375 -0.234375q-0.1875 -0.125 -0.53125 -0.234375q-0.328125 -0.109375 -0.890625 -0.234375q-1.15625 -0.234375 -1.71875 -0.640625q-0.5625 -0.421875 -0.5625 -1.09375q0 -0.375 0.15625 -0.6875q0.171875 -0.3125 0.484375 -0.53125q0.328125 -0.234375 0.796875 -0.359375q0.46875 -0.140625 1.078125 -0.140625q0.703125 0 1.328125 0.234375q0.625 0.234375 1.078125 0.53125l-0.5625 0.75q-0.421875 -0.28125 -0.921875 -0.4375q-0.484375 -0.15625 -1.03125 -0.15625q-0.671875 0 -0.9375 0.21875q-0.265625 0.203125 -0.265625 0.515625q0 0.34375 0.359375 0.53125q0.375 0.1875 1.234375 0.359375q0.734375 0.15625 1.1875 0.34375q0.46875 0.171875 0.734375 0.390625q0.265625 0.21875 0.375 0.484375q0.109375 0.265625 0.109375 0.609375q0 0.375 -0.1875 0.703125q-0.171875 0.3125 -0.515625 0.5625q-0.34375 0.25 -0.84375 0.375q-0.5 0.140625 -1.140625 0.140625zm5.137558 2.3125q-0.21875 0 -0.4375 -0.03125q-0.203125 -0.015625 -0.375 -0.078125l0.25 -0.921875q0.109375 0.03125 0.234375 0.046875q0.140625 0.03125 0.265625 0.03125q0.59375 0 0.953125 -0.328125q0.359375 -0.3125 0.5625 -0.796875l0.15625 -0.40625l-2.671875 -5.84375l1.1875 0l1.3125 3.0625q0.171875 0.40625 0.328125 0.84375q0.171875 0.4375 0.359375 0.875l0.046875 0q0.140625 -0.421875 0.296875 -0.859375q0.15625 -0.453125 0.296875 -0.859375l1.171875 -3.0625l1.125 0l-2.515625 6.25q-0.171875 0.46875 -0.40625 0.84375q-0.21875 0.390625 -0.53125 0.65625q-0.296875 0.28125 -0.703125 0.421875q-0.390625 0.15625 -0.90625 0.15625zm6.653183 -2.453125l0 -5.875l0.96875 0l0.09375 0.953125l0.046875 0q0.4375 -0.453125 0.953125 -0.765625q0.515625 -0.328125 1.203125 -0.328125q1.03125 0 1.515625 0.625q0.484375 0.609375 0.484375 1.75l0 3.640625l-1.1875 0l0 -3.484375q0 -0.765625 -0.28125 -1.125q-0.28125 -0.375 -0.953125 -0.375q-0.46875 0 -0.84375 0.234375q-0.359375 0.234375 -0.8125 0.703125l0 4.046875l-1.1875 0zm10.278183 0.140625q-0.6875 0 -1.28125 -0.203125q-0.59375 -0.203125 -1.03125 -0.59375q-0.421875 -0.40625 -0.671875 -0.96875q-0.25 -0.578125 -0.25 -1.296875q0 -0.734375 0.265625 -1.3125q0.265625 -0.578125 0.71875 -0.96875q0.46875 -0.40625 1.0625 -0.609375q0.59375 -0.203125 1.265625 -0.203125q0.71875 0 1.25 0.25q0.546875 0.25 0.90625 0.59375l-0.578125 0.75q-0.34375 -0.28125 -0.71875 -0.4375q-0.375 -0.171875 -0.8125 -0.171875q-0.46875 0 -0.859375 0.15625q-0.390625 0.140625 -0.671875 0.421875q-0.28125 0.28125 -0.4375 0.671875q-0.15625 0.390625 -0.15625 0.859375q0 0.46875 0.140625 0.859375q0.15625 0.375 0.4375 0.65625q0.28125 0.28125 0.65625 0.4375q0.390625 0.140625 0.859375 0.140625q0.546875 0 0.96875 -0.203125q0.421875 -0.203125 0.765625 -0.5l0.515625 0.78125q-0.5 0.421875 -1.109375 0.65625q-0.59375 0.234375 -1.234375 0.234375zm5.700058 2.421875l-0.328125 -0.71875q0.765625 -0.3125 1.125 -0.78125q0.375 -0.46875 0.40625 -1.140625q-0.046875 0.015625 -0.09375 0.015625q-0.046875 0 -0.109375 0q-0.40625 0 -0.71875 -0.234375q-0.3125 -0.25 -0.3125 -0.75q0 -0.484375 0.3125 -0.734375q0.3125 -0.265625 0.75 -0.265625q0.578125 0 0.875 0.453125q0.296875 0.4375 0.296875 1.21875q0 1.09375 -0.578125 1.828125q-0.5625 0.75 -1.625 1.109375z" fill-rule="nonzero"/><path fill="#ff00ff" d="m158.93256 45.9233l0 -5.875l0.96875 0l0.09375 0.953125l0.046875 0q0.4375 -0.453125 0.953125 -0.765625q0.515625 -0.328125 1.203125 -0.328125q1.03125 0 1.515625 0.625q0.484375 0.609375 0.484375 1.75l0 3.640625l-1.1875 0l0 -3.484375q0 -0.765625 -0.28125 -1.125q-0.28125 -0.375 -0.953125 -0.375q-0.46875 0 -0.84375 0.234375q-0.359375 0.234375 -0.8125 0.703125l0 4.046875l-1.1875 0zm9.731308 0.140625q-0.5625 0 -1.09375 -0.203125q-0.53125 -0.203125 -0.9375 -0.59375q-0.40625 -0.40625 -0.65625 -0.96875q-0.234375 -0.578125 -0.234375 -1.296875q0 -0.734375 0.234375 -1.3125q0.25 -0.578125 0.65625 -0.96875q0.40625 -0.40625 0.9375 -0.609375q0.53125 -0.203125 1.09375 -0.203125q0.578125 0 1.109375 0.203125q0.53125 0.203125 0.9375 0.609375q0.40625 0.390625 0.640625 0.96875q0.25 0.578125 0.25 1.3125q0 0.71875 -0.25 1.296875q-0.234375 0.5625 -0.640625 0.96875q-0.40625 0.390625 -0.9375 0.59375q-0.53125 0.203125 -1.109375 0.203125zm0 -0.96875q0.796875 0 1.25 -0.578125q0.453125 -0.578125 0.453125 -1.515625q0 -0.953125 -0.453125 -1.53125q-0.453125 -0.578125 -1.25 -0.578125q-0.78125 0 -1.25 0.578125q-0.453125 0.578125 -0.453125 1.53125q0 0.9375 0.453125 1.515625q0.46875 0.578125 1.25 0.578125zm4.325058 2.578125l0 -0.96875l5.765625 0l0 0.96875l-5.765625 0zm8.137558 -1.75l0 -5.875l0.984375 0l0.09375 1.375l0.03125 0q0.46875 -0.71875 1.109375 -1.109375q0.65625 -0.40625 1.453125 -0.40625q0.34375 0 0.609375 0.0625q0.265625 0.046875 0.546875 0.1875l-0.265625 1.015625q-0.296875 -0.09375 -0.515625 -0.140625q-0.21875 -0.046875 -0.5625 -0.046875q-0.625 0 -1.21875 0.359375q-0.578125 0.359375 -1.078125 1.234375l0 3.34375l-1.1875 0zm9.137558 0.140625q-0.5625 0 -1.09375 -0.203125q-0.53125 -0.203125 -0.9375 -0.59375q-0.40625 -0.40625 -0.65625 -0.96875q-0.234375 -0.578125 -0.234375 -1.296875q0 -0.734375 0.234375 -1.3125q0.25 -0.578125 0.65625 -0.96875q0.40625 -0.40625 0.9375 -0.609375q0.53125 -0.203125 1.09375 -0.203125q0.578125 0 1.109375 0.203125q0.53125 0.203125 0.9375 0.609375q0.40625 0.390625 0.640625 0.96875q0.25 0.578125 0.25 1.3125q0 0.71875 -0.25 1.296875q-0.234375 0.5625 -0.640625 0.96875q-0.40625 0.390625 -0.9375 0.59375q-0.53125 0.203125 -1.109375 0.203125zm0 -0.96875q0.796875 0 1.25 -0.578125q0.453125 -0.578125 0.453125 -1.515625q0 -0.953125 -0.453125 -1.53125q-0.453125 -0.578125 -1.25 -0.578125q-0.78125 0 -1.25 0.578125q-0.453125 0.578125 -0.453125 1.53125q0 0.9375 0.453125 1.515625q0.46875 0.578125 1.25 0.578125zm7.200058 0.96875q-0.5625 0 -1.09375 -0.203125q-0.53125 -0.203125 -0.9375 -0.59375q-0.40625 -0.40625 -0.65625 -0.96875q-0.234375 -0.578125 -0.234375 -1.296875q0 -0.734375 0.234375 -1.3125q0.25 -0.578125 0.65625 -0.96875q0.40625 -0.40625 0.9375 -0.609375q0.53125 -0.203125 1.09375 -0.203125q0.578125 0 1.109375 0.203125q0.53125 0.203125 0.9375 0.609375q0.40625 0.390625 0.640625 0.96875q0.25 0.578125 0.25 1.3125q0 0.71875 -0.25 1.296875q-0.234375 0.5625 -0.640625 0.96875q-0.40625 0.390625 -0.9375 0.59375q-0.53125 0.203125 -1.109375 0.203125zm0 -0.96875q0.796875 0 1.25 -0.578125q0.453125 -0.578125 0.453125 -1.515625q0 -0.953125 -0.453125 -1.53125q-0.453125 -0.578125 -1.25 -0.578125q-0.78125 0 -1.25 0.578125q-0.453125 0.578125 -0.453125 1.53125q0 0.9375 0.453125 1.515625q0.46875 0.578125 1.25 0.578125zm8.309433 0.96875q-0.640625 0 -1.09375 -0.171875q-0.453125 -0.1875 -0.734375 -0.5q-0.265625 -0.328125 -0.390625 -0.78125q-0.109375 -0.453125 -0.109375 -1.0l0 -2.59375l-1.609375 0l0 -0.90625l1.65625 -0.0625l0.15625 -1.859375l0.984375 0l0 1.859375l2.78125 0l0 0.96875l-2.78125 0l0 2.59375q0 0.75 0.296875 1.125q0.3125 0.375 1.125 0.375q0.375 0 0.703125 -0.0625q0.328125 -0.078125 0.640625 -0.1875l0.234375 0.875q-0.390625 0.125 -0.84375 0.21875q-0.4375 0.109375 -1.015625 0.109375zm3.215683 1.609375l0 -0.96875l5.765625 0l0 0.96875l-5.765625 0zm10.153183 -1.609375q-0.84375 0 -1.59375 -0.265625q-0.734375 -0.265625 -1.28125 -0.640625l0.53125 -0.765625q0.515625 0.359375 1.125 0.5625q0.609375 0.203125 1.375 0.203125q0.6875 0 1.0 -0.234375q0.328125 -0.234375 0.328125 -0.578125q0 -0.15625 -0.0625 -0.28125q-0.046875 -0.125 -0.234375 -0.234375q-0.1875 -0.125 -0.53125 -0.234375q-0.328125 -0.109375 -0.890625 -0.234375q-1.15625 -0.234375 -1.71875 -0.640625q-0.5625 -0.421875 -0.5625 -1.09375q0 -0.375 0.15625 -0.6875q0.171875 -0.3125 0.484375 -0.53125q0.328125 -0.234375 0.796875 -0.359375q0.46875 -0.140625 1.078125 -0.140625q0.703125 0 1.328125 0.234375q0.625 0.234375 1.078125 0.53125l-0.5625 0.75q-0.421875 -0.28125 -0.921875 -0.4375q-0.484375 -0.15625 -1.03125 -0.15625q-0.671875 0 -0.9375 0.21875q-0.265625 0.203125 -0.265625 0.515625q0 0.34375 0.359375 0.53125q0.375 0.1875 1.234375 0.359375q0.734375 0.15625 1.1875 0.34375q0.46875 0.171875 0.734375 0.390625q0.265625 0.21875 0.375 0.484375q0.109375 0.265625 0.109375 0.609375q0 0.375 -0.1875 0.703125q-0.171875 0.3125 -0.515625 0.5625q-0.34375 0.25 -0.84375 0.375q-0.5 0.140625 -1.140625 0.140625zm8.481308 2.265625l0 -2.046875l0.0625 -1.0625l-0.03125 0q-0.359375 0.359375 -0.828125 0.609375q-0.453125 0.234375 -0.96875 0.234375q-0.5625 0 -1.03125 -0.203125q-0.46875 -0.203125 -0.796875 -0.59375q-0.328125 -0.40625 -0.515625 -0.96875q-0.171875 -0.578125 -0.171875 -1.296875q0 -0.71875 0.21875 -1.28125q0.21875 -0.578125 0.578125 -0.96875q0.375 -0.40625 0.84375 -0.625q0.484375 -0.21875 0.984375 -0.21875q0.53125 0 0.953125 0.203125q0.421875 0.203125 0.8125 0.578125l0.03125 0l0.109375 -0.640625l0.9375 0l0 8.28125l-1.1875 0zm-1.46875 -3.25q0.78125 0 1.46875 -0.78125l0 -2.796875q-0.34375 -0.328125 -0.703125 -0.453125q-0.34375 -0.140625 -0.6875 -0.140625q-0.34375 0 -0.65625 0.140625q-0.296875 0.140625 -0.53125 0.421875q-0.21875 0.265625 -0.359375 0.65625q-0.125 0.375 -0.125 0.859375q0 1.015625 0.40625 1.5625q0.421875 0.53125 1.1875 0.53125zm6.590683 0.984375q-1.03125 0 -1.515625 -0.59375q-0.484375 -0.609375 -0.484375 -1.78125l0 -3.640625l1.1875 0l0 3.484375q0 0.78125 0.265625 1.15625q0.28125 0.359375 0.953125 0.359375q0.46875 0 0.84375 -0.21875q0.375 -0.21875 0.8125 -0.75l0 -4.03125l1.1875 0l0 5.875l-0.984375 0l-0.09375 -0.96875l-0.046875 0q-0.421875 0.5 -0.9375 0.8125q-0.515625 0.296875 -1.1875 0.296875zm7.215683 0q-0.421875 0 -0.796875 -0.125q-0.359375 -0.109375 -0.625 -0.328125q-0.25 -0.234375 -0.40625 -0.53125q-0.15625 -0.3125 -0.15625 -0.703125q0 -0.5 0.234375 -0.859375q0.234375 -0.375 0.734375 -0.640625q0.5 -0.265625 1.28125 -0.421875q0.796875 -0.171875 1.890625 -0.265625q-0.015625 -0.53125 -0.34375 -0.921875q-0.328125 -0.390625 -1.109375 -0.390625q-0.546875 0 -1.0625 0.21875q-0.5 0.203125 -0.9375 0.453125l-0.4375 -0.8125q0.234375 -0.140625 0.53125 -0.28125q0.296875 -0.15625 0.640625 -0.28125q0.34375 -0.125 0.703125 -0.1875q0.375 -0.078125 0.765625 -0.078125q1.21875 0 1.828125 0.671875q0.609375 0.65625 0.609375 1.8125l0 3.53125l-0.96875 0l-0.09375 -0.75l-0.03125 0q-0.46875 0.359375 -1.0625 0.625q-0.578125 0.265625 -1.1875 0.265625zm0.34375 -0.9375q0.46875 0 0.90625 -0.203125q0.453125 -0.21875 0.90625 -0.578125l0 -1.390625q-0.859375 0.0625 -1.4375 0.1875q-0.578125 0.109375 -0.921875 0.28125q-0.328125 0.171875 -0.484375 0.390625q-0.140625 0.21875 -0.140625 0.484375q0 0.4375 0.34375 0.640625q0.34375 0.1875 0.828125 0.1875zm7.637558 0.9375q-0.84375 0 -1.59375 -0.265625q-0.734375 -0.265625 -1.28125 -0.640625l0.53125 -0.765625q0.515625 0.359375 1.125 0.5625q0.609375 0.203125 1.375 0.203125q0.6875 0 1.0 -0.234375q0.328125 -0.234375 0.328125 -0.578125q0 -0.15625 -0.0625 -0.28125q-0.046875 -0.125 -0.234375 -0.234375q-0.1875 -0.125 -0.53125 -0.234375q-0.328125 -0.109375 -0.890625 -0.234375q-1.15625 -0.234375 -1.71875 -0.640625q-0.5625 -0.421875 -0.5625 -1.09375q0 -0.375 0.15625 -0.6875q0.171875 -0.3125 0.484375 -0.53125q0.328125 -0.234375 0.796875 -0.359375q0.46875 -0.140625 1.078125 -0.140625q0.703125 0 1.328125 0.234375q0.625 0.234375 1.078125 0.53125l-0.5625 0.75q-0.421875 -0.28125 -0.921875 -0.4375q-0.484375 -0.15625 -1.03125 -0.15625q-0.671875 0 -0.9375 0.21875q-0.265625 0.203125 -0.265625 0.515625q0 0.34375 0.359375 0.53125q0.375 0.1875 1.234375 0.359375q0.734375 0.15625 1.1875 0.34375q0.46875 0.171875 0.734375 0.390625q0.265625 0.21875 0.375 0.484375q0.109375 0.265625 0.109375 0.609375q0 0.375 -0.1875 0.703125q-0.171875 0.3125 -0.515625 0.5625q-0.34375 0.25 -0.84375 0.375q-0.5 0.140625 -1.140625 0.140625zm4.590683 -0.140625l0 -8.515625l1.1875 0l0 2.265625l-0.078125 1.3125l0.03125 0q0.421875 -0.453125 0.921875 -0.765625q0.515625 -0.3125 1.203125 -0.3125q1.0312653 0 1.5156403 0.625q0.484375 0.609375 0.484375 1.75l0 3.640625l-1.1875 0l0 -3.484375q0 -0.765625 -0.28125 -1.125q-0.28125 -0.375 -0.95314026 -0.375q-0.46875 0 -0.84375 0.234375q-0.359375 0.234375 -0.8125 0.703125l0 4.046875l-1.1875 0z" fill-rule="nonzero"/><path fill="#000000" d="m260.8115 48.032677l-0.671875 -0.5625q1.171875 -1.015625 1.71875 -2.203125q0.5625 -1.1875 0.5625 -2.6875q0 -1.484375 -0.5625 -2.65625q-0.546875 -1.1875 -1.71875 -2.21875l0.671875 -0.5625q1.234375 0.984375 1.9375 2.34375q0.703125 1.359375 0.703125 3.09375q0 1.75 -0.703125 3.109375q-0.703125 1.359375 -1.9375 2.34375z" fill-rule="nonzero"/><path fill="#000000" fill-opacity="0.0" d="m41.75647 54.16086l0 32.182762" fill-rule="evenodd"/><path stroke="#ff0000" stroke-width="1.0" stroke-linejoin="round" stroke-linecap="butt" d="m41.75647 54.16086l0 26.18277" fill-rule="evenodd"/><path fill="#ff0000" stroke="#ff0000" stroke-width="1.0" stroke-linecap="butt" d="m40.104736 80.34363l1.6517334 4.5380936l1.6517334 -4.5380936z" fill-rule="evenodd"/><path fill="#000000" fill-opacity="0.0" d="m21.431746 86.34362l53.88346 0l0 25.73278l-53.88346 0z" fill-rule="evenodd"/><path fill="#ff0000" d="m29.025496 96.52237l1.75 0l0 -1.890625l-1.75 0l0 1.890625zm-2.71875 2.75q1.3125 -0.609375 2.328125 -1.796875l0.625 0.5625q0.140625 0.171875 -0.234375 0.140625q-0.921875 1.046875 -2.25 1.796875l-0.46875 -0.703125zm6.828123 0.5625q-1.2968731 -0.5625 -2.421873 -1.9375l0.515625 -0.53125q1.1718731 1.265625 2.390623 1.765625l-0.484375 0.703125zm0.59375 -3.3125l0 0.671875l-7.624998 0l0 -0.671875l2.21875 0l0 -1.890625l-1.546875 0l0 -0.671875l1.546875 0l0 -1.71875l0.65625 0.0625q0.28125 0.03125 0.046875 0.21875l0 1.4375l1.75 0l0 -1.71875l0.671875 0.0625q0.28125 0.03125 0.03125 0.21875l0 1.4375l1.7656231 0l0 0.671875l-1.7656231 0l0 1.890625l2.249998 0zm7.453125 -0.625l0.140625 -0.140625l0.703125 0.5625q0.109375 0.171875 -0.25 0.140625l-2.390625 0.9375l0 0.28125l3.515625 0l0 0.671875l-3.515625 0l0 1.171875q0 0.5625 -0.5625 0.5625l-0.9375 0l-0.140625 -0.78125l0.796875 0q0.140625 0 0.140625 -0.140625l0 -0.8125l-3.796875 0l0 -0.671875l3.796875 0l0 -0.765625l0.5625 0.0625l0.984375 -0.515625l-4.21875 0l0 -0.5625l5.171875 0zm-4.703125 -2.078125l4.84375 0l0 1.65625l-4.84375 0l0 -1.65625zm0.59375 0.5625l0 0.53125l3.65625 0l0 -0.53125l-3.65625 0zm-2.0 -1.546875l3.46875 0l0 -0.8125l0.671875 0q0.28125 0.03125 0.03125 0.21875l0 0.59375l3.421875 0l0 0.5625l-7.59375 0l0 -0.5625zm15.5 7.0625l-0.703125 0l0 -0.421875l-3.96875 0l0 0.5625l-0.703125 0l0 -7.5625l5.375 0l0 7.421875zm-0.703125 -5.375l0 -1.375l-3.96875 0l0 1.375l3.96875 0zm0 2.078125l0 -1.40625l-3.96875 0l0 1.40625l3.96875 0zm0 2.203125l0 -1.546875l-3.96875 0l0 1.546875l3.96875 0z" fill-rule="nonzero"/><path fill="#ff0000" d="m54.212994 94.24112l0 -0.65625q0.703125 0.03125 1.203125 0.03125l3.71875 0l0.078125 -0.796875l-3.828125 0q-0.734375 0 -1.5 0.03125l0 -0.6875q0.765625 0.078125 1.46875 0.078125l4.65625 0q-0.140625 1.3125 -0.25 2.796875q0.796875 0 1.484375 -0.03125l0 0.65625q-0.609375 -0.046875 -1.265625 -0.046875l-2.453125 0l0 0.765625q0.375 0.625 0.703125 0.875q1.046875 -0.71875 1.484375 -1.203125q0.375 0.296875 0.703125 0.59375q-0.625 0.28125 -1.75 1.046875q0.578125 0.59375 1.125 0.84375q0.546875 0.25 1.5 0.46875q-0.40625 0.4375 -0.515625 0.84375q-0.984375 -0.4375 -1.8125 -1.015625q-0.8125 -0.59375 -1.4375 -1.421875l0 1.921875q0 0.515625 -0.46875 0.6875q-0.46875 0.1875 -0.984375 0.265625q-0.03125 -0.4375 -0.28125 -0.875q0.6875 0.03125 0.828125 -0.0625q0.15625 -0.078125 0.15625 -0.40625l0 -3.328125l-2.484375 0q-0.65625 0 -1.34375 0.046875l0 -0.65625q0.6875 0.03125 1.34375 0.03125l4.734375 0l0.078125 -0.796875l-4.890625 0zm2.40625 3.609375q-0.65625 0.390625 -1.484375 0.796875q-0.8125 0.40625 -1.71875 0.953125q-0.21875 -0.40625 -0.546875 -0.734375q1.171875 -0.359375 2.046875 -0.796875q0.875 -0.4375 1.5625 -0.84375q0.078125 0.328125 0.140625 0.625zm-2.4375 -1.859375q0.875 0.65625 1.421875 1.125q-0.21875 0.21875 -0.46875 0.546875q-0.703125 -0.6875 -1.359375 -1.171875q0.21875 -0.21875 0.40625 -0.5z" fill-rule="nonzero"/><path fill="#000000" fill-opacity="0.0" d="m83.34715 51.478962l0 68.11122" fill-rule="evenodd"/><path stroke="#1155cc" stroke-width="1.0" stroke-linejoin="round" stroke-linecap="butt" d="m83.34715 51.478962l0 62.111233" fill-rule="evenodd"/><path fill="#1155cc" stroke="#1155cc" stroke-width="1.0" stroke-linecap="butt" d="m81.69542 113.590195l1.6517334 4.5380936l1.6517334 -4.5380936z" fill-rule="evenodd"/><path fill="#000000" fill-opacity="0.0" d="m41.75589 119.59055l87.4422 0l0 20.912071l-87.4422 0z" fill-rule="evenodd"/><path fill="#1155cc" d="m51.13089 126.05055q1.546875 -0.25 2.328125 -0.609375l0.390625 0.671875q0.140625 0.3125 -0.21875 0.140625q-1.296875 0.28125 -2.453125 0.390625l0 1.46875l3.09375 0l0 0.671875l-1.171875 0l0 4.4375l-0.703125 0l0 -4.4375l-1.21875 0l0 1.09375q0 2.3125 -1.6875 3.453125l-0.53125 -0.640625q1.515625 -0.921875 1.515625 -2.890625l0 -4.0l0.65625 0.25zm-1.328125 1.265625l0 3.046875l-0.703125 0l0 -0.34375l-1.578125 0l0 0.984375q0 1.328125 -0.5625 2.25l-0.640625 -0.484375q0.5 -0.71875 0.5 -1.796875l0 -3.65625l2.984375 0zm-0.703125 2.03125l0 -1.375l-1.578125 0l0 1.375l1.578125 0zm-2.5625 -2.984375l0 -0.671875l3.515625 0l0 0.671875l-3.515625 0zm8.71875 3.796875q2.0625 -1.15625 2.671875 -2.984375l-2.359375 0l0 -0.671875l2.53125 0q0.109375 -0.421875 0.171875 -1.265625l0.921875 0.171875q0.140625 0.140625 -0.109375 0.171875l-0.171875 0.921875l4.21875 0l0 0.671875l-4.359375 0q-0.140625 0.484375 -0.328125 0.796875l3.484375 0l0 4.6875q0 0.5625 -0.5625 0.5625l-0.8125 0l-0.171875 -0.671875l0.703125 0q0.140625 0 0.140625 -0.140625l0 -0.953125l-3.0625 0l0 1.875l-0.703125 0l0 -3.875q-0.84375 0.875 -1.78125 1.4375l-0.421875 -0.734375zm2.90625 -0.140625l0 0.765625l3.0625 0l0 -0.765625l-3.0625 0zm3.0625 -0.671875l0 -0.703125l-3.0625 0l0 0.703125l3.0625 0z" fill-rule="nonzero"/><path fill="#1155cc" d="m69.88089 132.25368q-0.078125 -0.4375 -0.375 -0.875q0.734375 0 1.109375 -0.0625q0.390625 -0.078125 0.421875 -0.4375l0.078125 -1.96875l-3.09375 0l0 3.171875q0 0.65625 0.03125 1.34375l-0.828125 0q0.0625 -0.65625 0.0625 -1.34375l0 -3.171875l-0.796875 0q-1.203125 0 -1.9375 0.03125l0 -0.6875q0.765625 0.03125 1.578125 0.03125l5.828125 0q-0.109375 1.53125 -0.15625 2.484375q-0.03125 0.9375 -0.546875 1.1875q-0.5 0.234375 -1.375 0.296875zm-2.515625 -5.453125q0 0.65625 0.03125 1.125l-0.796875 0q0.03125 -0.546875 0.03125 -1.125l-1.234375 0q-0.515625 0 -1.125 0.0625l0 -0.71875q0.609375 0.03125 1.125 0.03125l1.234375 0q0 -0.6875 -0.03125 -1.171875l0.796875 0q-0.03125 0.484375 -0.03125 1.171875l1.921875 0q0 -0.734375 -0.03125 -1.171875l0.84375 0q-0.046875 0.4375 -0.046875 1.171875l1.171875 0q0.6875 0 1.28125 -0.03125l0 0.6875q-0.59375 -0.03125 -1.28125 -0.03125l-1.171875 0q0 0.578125 0.046875 1.125l-0.84375 0q0.03125 -0.578125 0.03125 -1.125l-1.921875 0z" fill-rule="nonzero"/><path fill="#1155cc" d="m80.084015 131.06618q0.703125 0.671875 1.265625 1.65625l-0.84375 0.421875q-0.5 -1.046875 -1.0625 -1.71875l0.640625 -0.359375zm-1.625 0.046875q0.609375 0.984375 0.703125 1.890625l-0.875 0.21875q-0.140625 -0.953125 -0.53125 -1.875l0.703125 -0.234375zm-4.640625 1.71875q0.640625 -0.640625 1.03125 -1.6875l0.734375 0.28125q-0.25 1.046875 -0.984375 1.859375l-0.78125 -0.453125zm3.0625 -1.515625q0.28125 0.671875 0.21875 1.875l-0.84375 0.03125q0.03125 -1.203125 -0.109375 -1.875l0.734375 -0.03125zm2.75 -1.328125l0 -1.375l-3.9375 0l0 1.375l3.9375 0zm-1.875 -4.640625q0.28125 0.03125 0.046875 0.203125l0 0.78125l2.953125 0l0 0.65625l-2.953125 0l0 0.953125l2.625 0l0 2.921875l-0.796875 0l0 -0.21875l-3.9375 0l0 0.28125l-0.8125 0l0 -2.984375l2.109375 0l0 -2.59375l0.765625 0zm12.0 5.015625q-0.1875 -0.734375 -0.921875 -1.609375l0.640625 -2.1875l-1.0625 0l0 6.765625l-0.703125 0l0 -7.421875l1.9375 0l0.0625 -0.1875l0.75 0.5l-0.140625 0.109375l-0.78125 2.28125q0.78125 0.8125 0.953125 1.46875q0.53125 2.15625 -0.84375 2.15625l-0.59375 0l-0.140625 -0.78125l0.515625 0q0.5625 0 0.328125 -1.09375zm-3.59375 -3.4375q0.3125 -0.453125 0.671875 -1.234375l0.625 0.453125q0.25 0.1875 -0.09375 0.21875q-0.53125 0.875 -1.171875 1.546875l1.171875 0l0 0.671875l-1.65625 0q-0.390625 0.375 -0.8125 0.703125l1.96875 0l0 3.9375l-0.703125 0l0 -0.421875l-1.796875 0l0 0.5625l-0.703125 0l0 -3.0625q-0.484375 0.34375 -0.984375 0.5625l-0.3125 -0.734375q1.203125 -0.46875 2.390625 -1.546875l-2.0 0l0 -0.671875l1.65625 0l0 -0.921875l-1.265625 0l0 -0.65625l1.265625 0l0 -1.125l0.65625 0q0.28125 0.03125 0.046875 0.203125l0 0.921875l1.046875 0l0 0.59375zm0 4.390625l-1.796875 0l0 0.921875l1.796875 0l0 -0.921875zm-1.796875 -1.46875l0 0.90625l1.796875 0l0 -0.90625l-1.796875 0zm0.953125 -1.9375q0.3125 -0.28125 0.8125 -0.921875l-1.015625 0l0 0.921875l0.203125 0zm6.359375 -1.96875l7.734375 0l0 0.765625l-1.078125 0l0 5.765625q0 0.671875 -0.640625 0.671875l-1.1875 0l-0.140625 -0.765625l1.015625 0q0.140625 0 0.140625 -0.140625l0 -5.53125l-5.84375 0l0 -0.765625zm4.640625 5.40625l-0.796875 0l0 -0.3125l-1.9375 0l0 0.671875l-0.8125 0l0 -3.765625l3.546875 0l0 3.40625zm-0.796875 -2.734375l-1.9375 0l0 1.75l1.9375 0l0 -1.75z" fill-rule="nonzero"/><path fill="#1155cc" d="m103.06839 132.98805q0.734375 -0.6875 1.125 -1.421875q0.40625 -0.734375 0.484375 -1.453125q0.078125 -0.734375 0.078125 -1.421875l0 -1.390625q-0.8125 0 -1.578125 0.046875l0 -0.703125q0.65625 0.046875 1.09375 0.046875l3.640625 0q0.40625 0 1.03125 -0.046875l0 0.703125q-0.546875 -0.046875 -1.171875 -0.046875l-2.328125 0l0 1.234375l2.796875 0q-0.0625 0.40625 -0.109375 1.140625l-0.171875 2.625q-0.078125 0.65625 -0.5 0.84375q-0.421875 0.203125 -1.25 0.25q-0.046875 -0.375 -0.296875 -0.8125q0.6875 0.046875 0.984375 -0.015625q0.296875 -0.046875 0.40625 -0.5625l0.171875 -2.84375l-2.03125 0q-0.078125 0.875 -0.1875 1.484375q-0.109375 0.59375 -0.46875 1.3125q-0.359375 0.703125 -1.09375 1.46875q-0.359375 -0.328125 -0.625 -0.4375zm0.734375 -1.78125q-0.734375 0.65625 -1.171875 1.0625q-0.4375 0.390625 -0.796875 0.75q-0.296875 -0.328125 -0.515625 -0.546875q0.40625 -0.328125 0.375 -0.6875l0 -3.28125l-1.140625 0l0 -0.6875q0.4375 0.03125 0.84375 0.03125l1.0625 0q-0.046875 0.6875 -0.046875 1.421875l0 2.328125q0.328125 -0.25 1.140625 -1.015625q0.03125 0.328125 0.25 0.625zm-2.1875 -6.125q0.328125 0.359375 1.171875 1.5625q-0.265625 0.1875 -0.625 0.4375q-0.546875 -0.90625 -1.125 -1.59375q0.359375 -0.21875 0.578125 -0.40625zm3.453125 0.140625q0.375 -0.140625 0.625 -0.359375q0.359375 0.46875 0.84375 1.421875q-0.375 0.109375 -0.703125 0.328125q-0.21875 -0.578125 -0.765625 -1.390625zm10.71875 2.625q-0.03125 0.796875 -0.03125 1.640625q0 0.84375 0.03125 1.53125l-3.609375 0q0.046875 -0.765625 0.046875 -1.5q0 -0.71875 -0.046875 -1.671875l3.609375 0zm2.078125 -2.328125q-0.03125 0.6875 -0.03125 1.421875l0 5.46875q0 0.6875 -0.40625 0.8125q-0.40625 0.125 -1.125 0.234375q-0.046875 -0.5 -0.328125 -0.875q0.765625 0 0.90625 -0.03125q0.140625 -0.03125 0.1875 -0.328125l0 -6.078125l-2.125 0q-0.90625 0 -1.625 0.03125l0 -0.6875q0.71875 0.03125 1.59375 0.03125l2.953125 0zm-6.734375 1.390625q-0.046875 0.609375 -0.046875 1.015625l0 5.5l-0.796875 0q0.03125 -0.734375 0.03125 -1.34375l0 -3.984375q0 -0.640625 -0.03125 -1.1875l0.84375 0zm3.890625 3.484375l0 -1.921875l-2.109375 0l0 1.921875l2.109375 0zm-3.5625 -5.421875q0.4375 0.578125 1.046875 1.28125q-0.25 0.171875 -0.65625 0.46875q-0.5 -0.796875 -1.015625 -1.28125q0.359375 -0.28125 0.625 -0.46875z" fill-rule="nonzero"/><path fill="#000000" fill-opacity="0.0" d="m102.25201 52.55256l0 37.540962" fill-rule="evenodd"/><path stroke="#741b47" stroke-width="1.0" stroke-linejoin="round" stroke-linecap="butt" d="m102.25201 52.55256l0 31.540962" fill-rule="evenodd"/><path fill="#741b47" stroke="#741b47" stroke-width="1.0" stroke-linecap="butt" d="m100.60028 84.09352l1.6517258 4.538101l1.6517334 -4.538101z" fill-rule="evenodd"/><path fill="#000000" fill-opacity="0.0" d="m86.651955 88.753975l48.835594 0l0 20.912079l-48.835594 0z" fill-rule="evenodd"/><path fill="#741b47" d="m93.933205 96.463974q0.765625 0.046875 2.359375 0.046875l0 -0.765625q-1.296875 0 -2.0625 0.03125l0 -0.625q0.46875 0.046875 2.0625 0.046875q0 -0.515625 -0.03125 -0.984375l0.734375 0q-0.046875 0.578125 -0.046875 0.984375q1.53125 0 2.1875 -0.046875l0 0.625q-0.578125 -0.03125 -2.1875 -0.03125l0 0.765625l2.484375 0q-0.515625 1.234375 -0.6875 1.703125q-0.265625 -0.109375 -0.625 -0.25q0.25 -0.625 0.359375 -0.921875l-3.015625 0q-0.765625 0 -1.53125 0.046875l0 -0.625zm3.09375 3.90625q-0.296875 0.71875 -0.765625 1.15625q-0.46875 0.4375 -1.0 0.703125q-0.53125 0.28125 -0.921875 0.4375q-0.21875 -0.296875 -0.484375 -0.59375q0.953125 -0.171875 1.625 -0.6875q0.671875 -0.515625 0.859375 -1.015625l-0.921875 0q-0.6875 0 -1.453125 0.03125l0 -0.65625q0.65625 0.03125 1.453125 0.03125l1.09375 0q0.078125 -0.578125 0.125 -1.25q0.0625 -0.671875 0.0625 -1.1875q0.328125 0.109375 0.765625 0.140625q-0.109375 0.40625 -0.171875 1.03125q-0.046875 0.609375 -0.15625 1.265625l0.875 0q0.65625 0 1.5 -0.03125l0 0.65625q-0.703125 -0.03125 -1.46875 -0.03125l-1.015625 0zm-4.046875 -3.421875q-0.03125 0.609375 -0.03125 1.34375l0 2.40625q0.296875 -0.328125 0.625 -0.734375q0.109375 0.296875 0.359375 0.625q-0.515625 0.5 -0.875 0.90625q-0.359375 0.40625 -0.625 0.734375q-0.171875 -0.296875 -0.546875 -0.546875q0.328125 -0.265625 0.40625 -0.59375l0 -3.5625q-0.4375 0 -1.171875 0.03125l0 -0.65625q0.65625 0.046875 1.203125 0.046875l0.65625 0zm4.453125 3.78125q1.34375 0.875 1.921875 1.3125q-0.25 0.25 -0.46875 0.578125q-0.65625 -0.609375 -1.828125 -1.3125q0.265625 -0.328125 0.375 -0.578125zm-5.25 -6.375q0.625 0.65625 1.0625 1.28125q-0.296875 0.171875 -0.59375 0.4375q-0.46875 -0.765625 -1.015625 -1.28125q0.328125 -0.21875 0.546875 -0.4375zm2.734375 2.84375q0.9375 0.609375 1.421875 0.90625q-0.1875 0.25 -0.40625 0.578125q-0.71875 -0.609375 -1.34375 -0.9375q0.1875 -0.296875 0.328125 -0.546875zm-0.65625 1.046875q0.84375 0.484375 1.421875 0.84375q-0.1875 0.25 -0.40625 0.578125q-0.90625 -0.65625 -1.34375 -0.875q0.1875 -0.25 0.328125 -0.546875z" fill-rule="nonzero"/><path fill="#741b47" d="m103.57383 101.401474q1.125 0.3125 1.546875 0.203125q0.453125 -0.109375 0.65625 -1.296875l-5.34375 0l0 -0.671875l5.453125 0l0.078125 -0.84375l-3.140625 0l-0.140625 0.359375l-0.703125 -0.1875q0.5 -1.640625 0.703125 -3.09375l0.671875 0.078125q0.28125 0.03125 0.03125 0.203125l-0.09375 0.421875l3.578125 0l0 0.671875l-3.6875 0q-0.109375 0.421875 -0.21875 0.875l3.796875 0l-0.09375 1.515625l1.75 0l0 0.671875l-1.859375 0q-0.359375 1.96875 -1.203125 2.109375q-0.796875 0.140625 -1.6875 -0.171875l-0.09375 -0.84375zm3.75 -4.828125l0 -1.046875l-5.796875 0l0 1.046875l-0.8125 0l0 -1.71875l7.421875 0l0 1.71875l-0.8125 0z" fill-rule="nonzero"/><path fill="#741b47" d="m112.91758 95.0421q0.796875 0.046875 1.484375 0.046875l2.84375 0q-0.140625 1.53125 -0.484375 2.640625q-0.34375 1.109375 -1.265625 2.421875q0.4375 0.578125 1.0625 0.953125q0.625 0.359375 1.421875 0.609375q-0.515625 0.40625 -0.625 0.734375q-0.828125 -0.40625 -1.421875 -0.875q-0.578125 -0.484375 -0.90625 -0.921875q-0.46875 0.546875 -0.984375 0.96875q-0.5 0.421875 -1.421875 0.96875q-0.140625 -0.359375 -0.578125 -0.6875q0.546875 -0.1875 1.234375 -0.578125q0.6875 -0.40625 1.3125 -1.171875q-0.328125 -0.4375 -0.65625 -1.40625q-0.328125 -0.96875 -0.5 -3.046875l-0.515625 0l0 -0.65625zm-3.640625 4.703125q0.546875 -0.578125 0.90625 -1.34375q0.359375 -0.765625 0.625 -1.71875q-0.625 0 -1.203125 0.046875l0 -0.65625q0.65625 0.03125 1.3125 0.03125q0 -1.53125 -0.046875 -2.046875l0.8125 0q-0.078125 0.4375 -0.078125 2.046875q0.546875 0 1.171875 -0.03125l0 0.65625q-0.625 -0.046875 -1.171875 -0.046875l0 1.34375q0.25 -0.140625 0.546875 -0.359375q0.65625 0.875 0.84375 1.3125q-0.40625 0.21875 -0.625 0.4375q-0.1875 -0.515625 -0.765625 -1.171875l0 2.703125q0 0.765625 0.03125 1.640625l-0.796875 0q0.078125 -0.875 0.078125 -1.640625l0 -2.703125q-0.296875 1.03125 -1.09375 2.15625q-0.21875 -0.46875 -0.546875 -0.65625zm4.84375 -4.078125q0.21875 1.890625 0.375 2.53125q0.171875 0.640625 0.5625 1.359375q0.4375 -0.65625 0.84375 -1.609375q0.40625 -0.96875 0.515625 -2.28125l-2.296875 0z" fill-rule="nonzero"/><path fill="#741b47" d="m121.120705 99.57335q-0.03125 -1.0625 -0.8125 -2.015625l0.703125 -2.140625l-1.1875 0l0 7.03125l-0.703125 0l0 -7.703125l2.109375 0l0.03125 -0.140625l0.703125 0.46875l-0.109375 0.09375l-0.84375 2.296875q0.921875 1.21875 0.84375 2.203125q-0.0625 1.265625 -0.875 1.265625l-0.765625 0l-0.1875 -0.734375l0.671875 0q0.453125 0 0.421875 -0.625zm3.375 2.171875l-2.8125 0.609375q-0.109375 0.234375 -0.203125 0.09375l-0.25 -0.84375l0.984375 -0.140625l0 -6.78125l3.828125 0l0 3.96875l-1.796875 0q0.109375 0.5 0.421875 1.203125q0.84375 -0.5 1.375 -1.0625l0.640625 0.5q0.140625 0.203125 -0.21875 0.140625q-0.59375 0.515625 -1.40625 0.984375q0.5 0.734375 1.828125 1.375l-0.421875 0.734375q-2.359375 -1.09375 -2.84375 -3.875l-0.703125 0l0 2.703125l1.46875 -0.28125l0.109375 0.671875zm0.84375 -6.390625l-2.421875 0l0 1.015625l2.421875 0l0 -1.015625zm0 1.6875l-2.421875 0l0 0.9375l2.421875 0l0 -0.9375z" fill-rule="nonzero"/><path fill="#000000" fill-opacity="0.0" d="m134.86334 54.16086l0 102.4272" fill-rule="evenodd"/><path stroke="#000000" stroke-width="1.0" stroke-linejoin="round" stroke-linecap="butt" d="m134.86334 54.16086l0 96.427185" fill-rule="evenodd"/><path fill="#000000" stroke="#000000" stroke-width="1.0" stroke-linecap="butt" d="m133.21161 150.58804l1.6517334 4.538101l1.6517334 -4.538101z" fill-rule="evenodd"/><path fill="#000000" fill-opacity="0.0" d="m111.9396 156.58792l50.019844 0l0 20.912079l-50.019844 0z" fill-rule="evenodd"/><path fill="#000000" d="m119.59585 166.98543q0.28125 0.03125 0.03125 0.203125l0 0.421875l1.828125 0l0 -0.625l0.671875 0q0.28125 0.03125 0.03125 0.203125l0 0.421875l2.109375 0l0 0.671875l-2.109375 0l0 2.046875l-0.703125 0l0 -2.046875l-1.828125 0q0 1.71875 -2.34375 2.140625l-0.328125 -0.65625q1.96875 -0.296875 1.96875 -1.484375l-2.28125 0l0 -0.671875l2.28125 0l0 -0.625l0.671875 0zm-1.9375 -2.890625l4.46875 0l0 -0.734375l-4.703125 0l0 -0.671875l5.40625 0l0 2.328125l-0.703125 0l0 -0.25l-3.765625 0l0 0.84375q0 0.28125 0.25 0.28125l4.046875 0q0.28125 0 0.34375 -0.21875l0.1875 -0.625l0.796875 0.203125l-0.28125 0.890625q-0.140625 0.421875 -0.703125 0.421875l-4.703125 0q-0.640625 0 -0.640625 -0.609375l0 -1.859375zm12.093742 -1.859375q0.28125 0.03125 0.046875 0.203125l0 0.8125l2.53125 0l0 0.671875l-2.53125 0l0 1.046875l3.40625 0l0 0.671875l-3.453125 0q0.328125 0.078125 0.046875 0.25l0 1.96875q0 0.59375 -0.5625 0.59375l-0.78125 0l-0.109375 -0.671875l0.640625 0q0.109375 0 0.109375 -0.09375l0 -2.046875l-3.5624924 0l0 -0.671875l1.546875 0l0 -2.109375l0.671875 0q0.28124237 0.046875 0.03125 0.21875l0 1.890625l1.3124924 0l0 -2.734375l0.65625 0zm-1.40625 4.25q0.1875 0.140625 -0.140625 0.140625q-0.8437424 1.125 -2.1406174 1.90625l-0.53125 -0.671875q1.375 -0.78125 2.15625 -1.796875l0.6562424 0.421875zm4.328125 0.21875q0.171875 0.171875 -0.109375 0.171875q-2.03125 3.546875 -6.2499924 3.484375l-0.25 -0.84375q4.1093674 0.171875 5.9374924 -3.28125l0.671875 0.46875zm4.859375 2.53125q1.125 0.3125 1.546875 0.203125q0.453125 -0.109375 0.65625 -1.296875l-5.34375 0l0 -0.671875l5.453125 0l0.078125 -0.84375l-3.140625 0l-0.140625 0.359375l-0.703125 -0.1875q0.5 -1.640625 0.703125 -3.09375l0.671875 0.078125q0.28125 0.03125 0.03125 0.203125l-0.09375 0.421875l3.578125 0l0 0.671875l-3.6875 0q-0.109375 0.421875 -0.21875 0.875l3.796875 0l-0.09375 1.515625l1.75 0l0 0.671875l-1.859375 0q-0.359375 1.96875 -1.203125 2.109375q-0.796875 0.140625 -1.6875 -0.171875l-0.09375 -0.84375zm3.75 -4.828125l0 -1.046875l-5.796875 0l0 1.046875l-0.8125 0l0 -1.71875l7.421875 0l0 1.71875l-0.8125 0zm9.609375 5.59375q-2.71875 -1.40625 -3.421875 -4.421875q-0.734375 3.40625 -3.546875 4.640625l-0.421875 -0.8125q3.0625 -1.265625 3.3125 -4.890625l0.453125 0.03125l0 -1.125l-1.828125 0l0 -0.65625l2.640625 0l0 1.265625q0 3.375 3.296875 5.09375l-0.484375 0.875z" fill-rule="nonzero"/><path fill="#000000" fill-opacity="0.0" d="m210.48277 54.696957l0 78.82762" fill-rule="evenodd"/><path stroke="#000000" stroke-width="1.0" stroke-linejoin="round" stroke-linecap="butt" d="m210.48277 54.696957l0 72.82762" fill-rule="evenodd"/><path fill="#000000" stroke="#000000" stroke-width="1.0" stroke-linecap="butt" d="m208.83104 127.524574l1.6517334 4.5380936l1.6517334 -4.5380936z" fill-rule="evenodd"/><path fill="#000000" fill-opacity="0.0" d="m166.52728 133.52458l263.24442 0l0 28.957764l-263.24442 0z" fill-rule="evenodd"/><path fill="#ff00ff" d="m178.29291 144.82832q-1.15625 -1.296875 -2.453125 -2.078125l0.484375 -0.625q1.375 0.703125 2.609375 2.03125l-0.640625 0.671875zm-6.921875 -4.921875l7.390625 0l0 0.78125l-3.0625 0q-0.109375 0.34375 -0.3125 0.734375l0 5.703125l-0.8125 0l0 -4.515625q-1.203125 1.515625 -3.03125 2.328125l-0.484375 -0.8125q2.59375 -1.09375 3.765625 -3.4375l-3.453125 0l0 -0.78125z" fill-rule="nonzero"/><path fill="#ff00ff" d="m184.33978 142.51582l0 -1.09375q0 -0.578125 -0.046875 -0.984375l0.84375 0q-0.078125 0.296875 -0.078125 1.015625l0 1.0625l1.3125 0q0.765625 0 1.140625 -0.046875l0 0.8125q-0.375 -0.046875 -1.140625 -0.046875l-1.3125 0l0 3.0l1.609375 0q0.90625 0 1.390625 -0.046875l0 0.765625q-0.484375 -0.03125 -1.359375 -0.03125l-3.703125 0q-0.953125 0 -1.359375 0.03125l0 -0.765625q0.546875 0.046875 1.359375 0.046875l1.34375 0l0 -3.0l-0.84375 0q-0.9375 0 -1.265625 0.046875l0 -0.8125q0.578125 0.046875 1.265625 0.046875l0.84375 0zm2.328125 -3.25q0.796875 0 1.234375 -0.03125l0 0.734375q-0.359375 -0.046875 -1.234375 -0.046875l-5.03125 0l0 3.25q0 1.234375 -0.28125 2.265625q-0.265625 1.015625 -0.765625 2.0q-0.296875 -0.296875 -0.765625 -0.484375q0.609375 -0.90625 0.828125 -1.71875q0.21875 -0.828125 0.265625 -1.84375l0 -2.734375q-0.046875 -0.765625 -0.078125 -1.390625l5.828125 0zm-0.40625 4.515625q0.59375 0.765625 0.953125 1.359375q-0.40625 0.21875 -0.734375 0.4375q-0.359375 -0.765625 -0.796875 -1.390625q0.328125 -0.1875 0.578125 -0.40625zm10.421875 -2.25q0.40625 0 0.921875 -0.03125l0 0.609375q-0.515625 -0.03125 -1.421875 -0.03125l-0.265625 1.015625l1.46875 0q-0.046875 0.6875 -0.046875 1.28125l0 1.859375q0 0.5 0.046875 1.265625l-0.65625 0l0 -0.6875l-1.640625 0l0 0.6875l-0.65625 0q0.03125 -0.71875 0.03125 -1.265625l0 -1.859375q0 -0.59375 -0.03125 -1.28125l0.828125 0q0.15625 -0.40625 0.265625 -1.015625q-0.703125 0 -1.203125 0.03125l0 -0.609375q0.5 0.03125 1.09375 0.03125l1.265625 0zm-5.171875 -2.296875q-0.328125 0.359375 -0.734375 1.171875q-0.390625 0.796875 -0.796875 1.484375q0.484375 0 0.984375 -0.03125q0.1875 -0.4375 0.328125 -0.984375q0.375 0.21875 0.8125 0.40625q-0.328125 0.390625 -0.703125 1.0625q-0.359375 0.671875 -1.046875 1.8125q0.796875 -0.046875 1.59375 -0.15625q-0.0625 0.328125 -0.03125 0.625q-0.359375 0.03125 -1.0625 0.078125q-0.6875 0.03125 -1.3125 0.25q-0.03125 -0.359375 -0.25 -0.65625q0.515625 -0.21875 0.78125 -0.671875q0.28125 -0.453125 0.671875 -1.21875q-0.90625 0.03125 -1.34375 0.21875q-0.140625 -0.40625 -0.25 -0.65625q0.25 -0.078125 0.484375 -0.453125q0.234375 -0.390625 0.609375 -1.203125q0.390625 -0.828125 0.46875 -1.40625q0.40625 0.21875 0.796875 0.328125zm2.8125 1.890625q-0.328125 0.296875 -0.46875 0.53125q-0.125 0.234375 -0.328125 0.59375l0 5.25l-0.703125 0q0.046875 -0.609375 0.046875 -1.125l0 -3.203125q-0.21875 0.28125 -0.484375 0.71875q-0.28125 -0.25 -0.609375 -0.390625q0.65625 -0.625 1.109375 -1.34375q0.453125 -0.734375 0.671875 -1.359375q0.328125 0.21875 0.765625 0.328125zm0.90625 -2.296875q0.109375 0.265625 0.296875 1.03125l2.25 0q-0.03125 0.359375 -0.03125 0.65625q0 0.28125 0.03125 0.609375l-0.6875 0l0 -0.6875l-4.0 0l0 1.0625l-0.703125 0q0.046875 -0.484375 0.046875 -0.875q0 -0.40625 -0.046875 -0.765625l2.328125 0q-0.0625 -0.4375 -0.25 -0.84375q0.328125 -0.109375 0.765625 -0.1875zm-3.125 6.78125q0 0.359375 0.03125 0.6875q-0.734375 0.109375 -1.453125 0.25q-0.703125 0.15625 -1.25 0.34375q-0.03125 -0.40625 -0.25 -0.921875q0.734375 0 1.3125 -0.0625q0.578125 -0.078125 1.609375 -0.296875zm4.625 -0.953125l0 -1.015625l-1.640625 0l0 1.015625l1.640625 0zm0 1.609375l0 -1.015625l-1.640625 0l0 1.015625l1.640625 0z" fill-rule="nonzero"/><path fill="#ff00ff" d="m198.79291 146.48457l0 -4.84375l0.734375 0l0 0.734375q0.28125 -0.515625 0.515625 -0.671875q0.25 -0.171875 0.53125 -0.171875q0.421875 0 0.84375 0.265625l-0.28125 0.765625q-0.296875 -0.171875 -0.609375 -0.171875q-0.265625 0 -0.484375 0.15625q-0.203125 0.15625 -0.296875 0.453125q-0.140625 0.4375 -0.140625 0.953125l0 2.53125l-0.8125 0zm2.8094635 -2.421875q0 -1.34375 0.75 -1.984375q0.625 -0.546875 1.515625 -0.546875q1.0 0 1.625 0.65625q0.640625 0.65625 0.640625 1.8125q0 0.9375 -0.28125 1.46875q-0.28125 0.53125 -0.8125 0.828125q-0.53125 0.296875 -1.171875 0.296875q-1.015625 0 -1.640625 -0.640625q-0.625 -0.65625 -0.625 -1.890625zm0.84375 0q0 0.9375 0.40625 1.40625q0.40625 0.453125 1.015625 0.453125q0.609375 0 1.015625 -0.46875q0.40625 -0.46875 0.40625 -1.421875q0 -0.890625 -0.40625 -1.34375q-0.40625 -0.46875 -1.015625 -0.46875q-0.609375 0 -1.015625 0.46875q-0.40625 0.453125 -0.40625 1.375zm4.344116 0q0 -1.34375 0.75 -1.984375q0.625 -0.546875 1.515625 -0.546875q1.0 0 1.625 0.65625q0.640625 0.65625 0.640625 1.8125q0 0.9375 -0.28125 1.46875q-0.28125 0.53125 -0.8125 0.828125q-0.53125 0.296875 -1.171875 0.296875q-1.015625 0 -1.640625 -0.640625q-0.625 -0.65625 -0.625 -1.890625zm0.84375 0q0 0.9375 0.40625 1.40625q0.40625 0.453125 1.015625 0.453125q0.609375 0 1.015625 -0.46875q0.40625 -0.46875 0.40625 -1.421875q0 -0.890625 -0.40625 -1.34375q-0.40625 -0.46875 -1.015625 -0.46875q-0.609375 0 -1.015625 0.46875q-0.40625 0.453125 -0.40625 1.375zm6.437866 1.6875l0.109375 0.71875q-0.34375 0.078125 -0.609375 0.078125q-0.453125 0 -0.703125 -0.140625q-0.234375 -0.140625 -0.34375 -0.359375q-0.09375 -0.234375 -0.09375 -0.984375l0 -2.78125l-0.609375 0l0 -0.640625l0.609375 0l0 -1.1875l0.8125 -0.5l0 1.6875l0.828125 0l0 0.640625l-0.828125 0l0 2.828125q0 0.359375 0.046875 0.46875q0.046875 0.09375 0.140625 0.15625q0.09375 0.046875 0.28125 0.046875q0.140625 0 0.359375 -0.03125z" fill-rule="nonzero"/><path fill="#ff00ff" d="m218.19476 139.8127q0.796875 0.046875 1.484375 0.046875l2.84375 0q-0.140625 1.53125 -0.484375 2.640625q-0.34375 1.109375 -1.265625 2.421875q0.4375 0.578125 1.0625 0.953125q0.625 0.359375 1.421875 0.609375q-0.515625 0.40625 -0.625 0.734375q-0.828125 -0.40625 -1.421875 -0.875q-0.578125 -0.484375 -0.90625 -0.921875q-0.46875 0.546875 -0.984375 0.96875q-0.5 0.421875 -1.421875 0.96875q-0.140625 -0.359375 -0.578125 -0.6875q0.546875 -0.1875 1.234375 -0.578125q0.6875 -0.40625 1.3125 -1.171875q-0.328125 -0.4375 -0.65625 -1.40625q-0.328125 -0.96875 -0.5 -3.046875l-0.515625 0l0 -0.65625zm-3.640625 4.703125q0.546875 -0.578125 0.90625 -1.34375q0.359375 -0.765625 0.625 -1.71875q-0.625 0 -1.203125 0.046875l0 -0.65625q0.65625 0.03125 1.3125 0.03125q0 -1.53125 -0.046875 -2.046875l0.8125 0q-0.078125 0.4375 -0.078125 2.046875q0.546875 0 1.171875 -0.03125l0 0.65625q-0.625 -0.046875 -1.171875 -0.046875l0 1.34375q0.25 -0.140625 0.546875 -0.359375q0.65625 0.875 0.84375 1.3125q-0.40625 0.21875 -0.625 0.4375q-0.1875 -0.515625 -0.765625 -1.171875l0 2.703125q0 0.765625 0.03125 1.640625l-0.796875 0q0.078125 -0.875 0.078125 -1.640625l0 -2.703125q-0.296875 1.03125 -1.09375 2.15625q-0.21875 -0.46875 -0.546875 -0.65625zm4.84375 -4.078125q0.21875 1.890625 0.375 2.53125q0.171875 0.640625 0.5625 1.359375q0.4375 -0.65625 0.84375 -1.609375q0.40625 -0.96875 0.515625 -2.28125l-2.296875 0z" fill-rule="nonzero"/><path fill="#ff00ff" d="m226.39789 144.34395q-0.03125 -1.0625 -0.8125 -2.015625l0.703125 -2.140625l-1.1875 0l0 7.03125l-0.703125 0l0 -7.703125l2.109375 0l0.03125 -0.140625l0.703125 0.46875l-0.109375 0.09375l-0.84375 2.296875q0.921875 1.21875 0.84375 2.203125q-0.0625 1.265625 -0.875 1.265625l-0.765625 0l-0.1875 -0.734375l0.671875 0q0.453125 0 0.421875 -0.625zm3.375 2.171875l-2.8125 0.609375q-0.109375 0.234375 -0.203125 0.09375l-0.25 -0.84375l0.984375 -0.140625l0 -6.78125l3.828125 0l0 3.96875l-1.796875 0q0.109375 0.5 0.421875 1.203125q0.84375 -0.5 1.375 -1.0625l0.640625 0.5q0.140625 0.203125 -0.21875 0.140625q-0.59375 0.515625 -1.40625 0.984375q0.5 0.734375 1.828125 1.375l-0.421875 0.734375q-2.359375 -1.09375 -2.84375 -3.875l-0.703125 0l0 2.703125l1.46875 -0.28125l0.109375 0.671875zm0.84375 -6.390625l-2.421875 0l0 1.015625l2.421875 0l0 -1.015625zm0 1.6875l-2.421875 0l0 0.9375l2.421875 0l0 -0.9375z" fill-rule="nonzero"/><path fill="#ff00ff" d="m176.65228 157.1877q-0.078125 -0.4375 -0.375 -0.875q0.734375 0 1.109375 -0.0625q0.390625 -0.078125 0.421875 -0.4375l0.078125 -1.96875l-3.09375 0l0 3.171875q0 0.65625 0.03125 1.34375l-0.828125 0q0.0625 -0.65625 0.0625 -1.34375l0 -3.171875l-0.796875 0q-1.203125 0 -1.9375 0.03125l0 -0.6875q0.765625 0.03125 1.578125 0.03125l5.828125 0q-0.109375 1.53125 -0.15625 2.484375q-0.03125 0.9375 -0.546875 1.1875q-0.5 0.234375 -1.375 0.296875zm-2.515625 -5.453125q0 0.65625 0.03125 1.125l-0.796875 0q0.03125 -0.546875 0.03125 -1.125l-1.234375 0q-0.515625 0 -1.125 0.0625l0 -0.71875q0.609375 0.03125 1.125 0.03125l1.234375 0q0 -0.6875 -0.03125 -1.171875l0.796875 0q-0.03125 0.484375 -0.03125 1.171875l1.921875 0q0 -0.734375 -0.03125 -1.171875l0.84375 0q-0.046875 0.4375 -0.046875 1.171875l1.171875 0q0.6875 0 1.28125 -0.03125l0 0.6875q-0.59375 -0.03125 -1.28125 -0.03125l-1.171875 0q0 0.578125 0.046875 1.125l-0.84375 0q0.03125 -0.578125 0.03125 -1.125l-1.921875 0z" fill-rule="nonzero"/><path fill="#ff00ff" d="m186.85541 156.0002q0.703125 0.671875 1.265625 1.65625l-0.84375 0.421875q-0.5 -1.046875 -1.0625 -1.71875l0.640625 -0.359375zm-1.625 0.046875q0.609375 0.984375 0.703125 1.890625l-0.875 0.21875q-0.140625 -0.953125 -0.53125 -1.875l0.703125 -0.234375zm-4.640625 1.71875q0.640625 -0.640625 1.03125 -1.6875l0.734375 0.28125q-0.25 1.046875 -0.984375 1.859375l-0.78125 -0.453125zm3.0625 -1.515625q0.28125 0.671875 0.21875 1.875l-0.84375 0.03125q0.03125 -1.203125 -0.109375 -1.875l0.734375 -0.03125zm2.75 -1.328125l0 -1.375l-3.9375 0l0 1.375l3.9375 0zm-1.875 -4.640625q0.28125 0.03125 0.046875 0.203125l0 0.78125l2.953125 0l0 0.65625l-2.953125 0l0 0.953125l2.625 0l0 2.921875l-0.796875 0l0 -0.21875l-3.9375 0l0 0.28125l-0.8125 0l0 -2.984375l2.109375 0l0 -2.59375l0.765625 0zm11.609375 5.015625l-2.28125 0l0 2.6875l-0.703125 0l0 -2.6875l-2.109375 0q-0.078125 1.828125 -1.09375 2.921875l-0.5625 -0.5625q0.953125 -1.046875 0.953125 -2.453125l0 -4.5l6.5 0l0 6.703125q0 0.578125 -0.5625 0.578125l-0.984375 0l-0.171875 -0.78125l0.875 0q0.140625 0 0.140625 -0.140625l0 -1.765625zm-5.09375 -1.96875l0 1.3125l2.109375 0l0 -1.3125l-2.109375 0zm0 -1.96875l0 1.3125l2.109375 0l0 -1.3125l-2.109375 0zm2.8125 1.96875l0 1.3125l2.28125 0l0 -1.3125l-2.28125 0zm0 -1.96875l0 1.3125l2.28125 0l0 -1.3125l-2.28125 0z" fill-rule="nonzero"/><path fill="#ff00ff" d="m198.46478 157.48457l0 -4.84375l0.734375 0l0 0.734375q0.28125 -0.515625 0.515625 -0.671875q0.25 -0.171875 0.53125 -0.171875q0.421875 0 0.84375 0.265625l-0.28125 0.765625q-0.296875 -0.171875 -0.609375 -0.171875q-0.265625 0 -0.484375 0.15625q-0.203125 0.15625 -0.296875 0.453125q-0.140625 0.4375 -0.140625 0.953125l0 2.53125l-0.8125 0zm2.8094635 -2.421875q0 -1.34375 0.75 -1.984375q0.625 -0.546875 1.515625 -0.546875q1.0 0 1.625 0.65625q0.640625 0.65625 0.640625 1.8125q0 0.9375 -0.28125 1.46875q-0.28125 0.53125 -0.8125 0.828125q-0.53125 0.296875 -1.171875 0.296875q-1.015625 0 -1.640625 -0.640625q-0.625 -0.65625 -0.625 -1.890625zm0.84375 0q0 0.9375 0.40625 1.40625q0.40625 0.453125 1.015625 0.453125q0.609375 0 1.015625 -0.46875q0.40625 -0.46875 0.40625 -1.421875q0 -0.890625 -0.40625 -1.34375q-0.40625 -0.46875 -1.015625 -0.46875q-0.609375 0 -1.015625 0.46875q-0.40625 0.453125 -0.40625 1.375zm4.344116 0q0 -1.34375 0.75 -1.984375q0.625 -0.546875 1.515625 -0.546875q1.0 0 1.625 0.65625q0.640625 0.65625 0.640625 1.8125q0 0.9375 -0.28125 1.46875q-0.28125 0.53125 -0.8125 0.828125q-0.53125 0.296875 -1.171875 0.296875q-1.015625 0 -1.640625 -0.640625q-0.625 -0.65625 -0.625 -1.890625zm0.84375 0q0 0.9375 0.40625 1.40625q0.40625 0.453125 1.015625 0.453125q0.609375 0 1.015625 -0.46875q0.40625 -0.46875 0.40625 -1.421875q0 -0.890625 -0.40625 -1.34375q-0.40625 -0.46875 -1.015625 -0.46875q-0.609375 0 -1.015625 0.46875q-0.40625 0.453125 -0.40625 1.375zm6.437866 1.6875l0.109375 0.71875q-0.34375 0.078125 -0.609375 0.078125q-0.453125 0 -0.703125 -0.140625q-0.234375 -0.140625 -0.34375 -0.359375q-0.09375 -0.234375 -0.09375 -0.984375l0 -2.78125l-0.609375 0l0 -0.640625l0.609375 0l0 -1.1875l0.8125 -0.5l0 1.6875l0.828125 0l0 0.640625l-0.828125 0l0 2.828125q0 0.359375 0.046875 0.46875q0.046875 0.09375 0.140625 0.15625q0.09375 0.046875 0.28125 0.046875q0.140625 0 0.359375 -0.03125z" fill-rule="nonzero"/><path fill="#ff00ff" d="m217.86664 150.8127q0.796875 0.046875 1.484375 0.046875l2.84375 0q-0.140625 1.53125 -0.484375 2.640625q-0.34375 1.109375 -1.265625 2.421875q0.4375 0.578125 1.0625 0.953125q0.625 0.359375 1.421875 0.609375q-0.515625 0.40625 -0.625 0.734375q-0.828125 -0.40625 -1.421875 -0.875q-0.578125 -0.484375 -0.90625 -0.921875q-0.46875 0.546875 -0.984375 0.96875q-0.5 0.421875 -1.421875 0.96875q-0.140625 -0.359375 -0.578125 -0.6875q0.546875 -0.1875 1.234375 -0.578125q0.6875 -0.40625 1.3125 -1.171875q-0.328125 -0.4375 -0.65625 -1.40625q-0.328125 -0.96875 -0.5 -3.046875l-0.515625 0l0 -0.65625zm-3.640625 4.703125q0.546875 -0.578125 0.90625 -1.34375q0.359375 -0.765625 0.625 -1.71875q-0.625 0 -1.203125 0.046875l0 -0.65625q0.65625 0.03125 1.3125 0.03125q0 -1.53125 -0.046875 -2.046875l0.8125 0q-0.078125 0.4375 -0.078125 2.046875q0.546875 0 1.171875 -0.03125l0 0.65625q-0.625 -0.046875 -1.171875 -0.046875l0 1.34375q0.25 -0.140625 0.546875 -0.359375q0.65625 0.875 0.84375 1.3125q-0.40625 0.21875 -0.625 0.4375q-0.1875 -0.515625 -0.765625 -1.171875l0 2.703125q0 0.765625 0.03125 1.640625l-0.796875 0q0.078125 -0.875 0.078125 -1.640625l0 -2.703125q-0.296875 1.03125 -1.09375 2.15625q-0.21875 -0.46875 -0.546875 -0.65625zm4.84375 -4.078125q0.21875 1.890625 0.375 2.53125q0.171875 0.640625 0.5625 1.359375q0.4375 -0.65625 0.84375 -1.609375q0.40625 -0.96875 0.515625 -2.28125l-2.296875 0z" fill-rule="nonzero"/><path fill="#ff00ff" d="m226.06976 155.34395q-0.03125 -1.0625 -0.8125 -2.015625l0.703125 -2.140625l-1.1875 0l0 7.03125l-0.703125 0l0 -7.703125l2.109375 0l0.03125 -0.140625l0.703125 0.46875l-0.109375 0.09375l-0.84375 2.296875q0.921875 1.21875 0.84375 2.203125q-0.0625 1.265625 -0.875 1.265625l-0.765625 0l-0.1875 -0.734375l0.671875 0q0.453125 0 0.421875 -0.625zm3.375 2.171875l-2.8125 0.609375q-0.109375 0.234375 -0.203125 0.09375l-0.25 -0.84375l0.984375 -0.140625l0 -6.78125l3.828125 0l0 3.96875l-1.796875 0q0.109375 0.5 0.421875 1.203125q0.84375 -0.5 1.375 -1.0625l0.640625 0.5q0.140625 0.203125 -0.21875 0.140625q-0.59375 0.515625 -1.40625 0.984375q0.5 0.734375 1.828125 1.375l-0.421875 0.734375q-2.359375 -1.09375 -2.84375 -3.875l-0.703125 0l0 2.703125l1.46875 -0.28125l0.109375 0.671875zm0.84375 -6.390625l-2.421875 0l0 1.015625l2.421875 0l0 -1.015625zm0 1.6875l-2.421875 0l0 0.9375l2.421875 0l0 -0.9375zm5.5625 4.359375q1.125 0.3125 1.546875 0.203125q0.453125 -0.109375 0.65625 -1.296875l-5.34375 0l0 -0.671875l5.453125 0l0.078125 -0.84375l-3.140625 0l-0.140625 0.359375l-0.703125 -0.1875q0.5 -1.640625 0.703125 -3.09375l0.671875 0.078125q0.28125 0.03125 0.03125 0.203125l-0.09375 0.421875l3.578125 0l0 0.671875l-3.6875 0q-0.109375 0.421875 -0.21875 0.875l3.796875 0l-0.09375 1.515625l1.75 0l0 0.671875l-1.859375 0q-0.359375 1.96875 -1.203125 2.109375q-0.796875 0.140625 -1.6875 -0.171875l-0.09375 -0.84375zm3.75 -4.828125l0 -1.046875l-5.796875 0l0 1.046875l-0.8125 0l0 -1.71875l7.421875 0l0 1.71875l-0.8125 0zm6.265625 3.734375q-1.765625 1.515625 -3.625 2.078125l-0.3125 -0.84375q1.859375 -0.53125 3.34375 -1.796875q-1.234375 -1.34375 -1.65625 -3.09375l-1.6875 0l0 -0.671875l3.375 0l0 -1.328125l0.765625 0q0.359375 0.0625 0.046875 0.28125l0 1.046875l3.40625 0l0 0.671875l-1.65625 0q-0.28125 1.65625 -1.46875 3.09375q1.21875 1.09375 3.265625 1.609375l-0.3125 0.859375q-1.796875 -0.46875 -3.484375 -1.90625zm-0.03125 -1.125q1.046875 -1.265625 1.296875 -2.53125l-2.75 0q0.21875 1.1875 1.453125 2.53125zm8.921875 -3.65625q-0.03125 0.25 -0.203125 0.984375l1.078125 0l0 -1.9375l0.671875 0q0.28125 0.03125 0.03125 0.21875l0 1.71875l1.734375 0l0 0.671875l-1.734375 0l0 1.75l2.4375 0l0 0.671875l-2.4375 0l0 2.84375l-0.703125 0l0 -2.84375l-2.59375 0l0 -0.671875l2.59375 0l0 -1.75l-1.296875 0q-0.34375 0.9375 -0.84375 1.5l-0.59375 -0.5625q1.015625 -1.296875 1.125 -2.984375l0.84375 0.21875q0.140625 0.140625 -0.109375 0.171875zm-2.171875 6.96875l-0.703125 0l0 -4.375q-0.25 0.46875 -0.640625 0.921875l-0.5625 -0.640625q1.34375 -1.546875 1.578125 -3.890625l0.75 0.140625q0.234375 0.0625 0 0.171875q-0.21875 1.15625 -0.5 1.96875l0.140625 0.03125q0.109375 0.109375 -0.0625 0.21875l0 5.453125zm7.546875 -1.703125l0.8125 0l0 0.78125l-0.421875 0.953125l-0.390625 0l0.359375 -0.953125l-0.359375 0l0 -0.78125zm9.7109375 -0.484375q-1.765625 1.515625 -3.625 2.078125l-0.3125 -0.84375q1.859375 -0.53125 3.34375 -1.796875q-1.234375 -1.34375 -1.65625 -3.09375l-1.6875 0l0 -0.671875l3.375 0l0 -1.328125l0.765625 0q0.359375 0.0625 0.046875 0.28125l0 1.046875l3.40625 0l0 0.671875l-1.65625 0q-0.28125 1.65625 -1.46875 3.09375q1.21875 1.09375 3.265625 1.609375l-0.3125 0.859375q-1.796875 -0.46875 -3.484375 -1.90625zm-0.03125 -1.125q1.046875 -1.265625 1.296875 -2.53125l-2.75 0q0.21875 1.1875 1.453125 2.53125zm8.921875 -3.65625q-0.03125 0.25 -0.203125 0.984375l1.078125 0l0 -1.9375l0.671875 0q0.28125 0.03125 0.03125 0.21875l0 1.71875l1.734375 0l0 0.671875l-1.734375 0l0 1.75l2.4375 0l0 0.671875l-2.4375 0l0 2.84375l-0.703125 0l0 -2.84375l-2.59375 0l0 -0.671875l2.59375 0l0 -1.75l-1.296875 0q-0.34375 0.9375 -0.84375 1.5l-0.59375 -0.5625q1.015625 -1.296875 1.125 -2.984375l0.84375 0.21875q0.140625 0.140625 -0.109375 0.171875zm-2.171875 6.96875l-0.703125 0l0 -4.375q-0.25 0.46875 -0.640625 0.921875l-0.5625 -0.640625q1.34375 -1.546875 1.578125 -3.890625l0.75 0.140625q0.234375 0.0625 0 0.171875q-0.21875 1.15625 -0.5 1.96875l0.140625 0.03125q0.109375 0.109375 -0.0625 0.21875l0 5.453125zm13.703125 -0.25q-0.625 0 -0.625 -0.703125l0 -3.28125q-0.421875 2.71875 -2.296875 4.1875l-0.484375 -0.65625q2.078125 -1.34375 2.21875 -4.65625l-1.09375 0l0 -0.65625l1.125 0l0 -1.9375l0.5625 0q0.28125 0.03125 0.03125 0.203125l0 1.734375l1.828125 0l0 0.65625l-1.828125 0q-0.03125 0.390625 -0.0625 0.921875l0.5625 0.0625q0.28125 0.046875 0.03125 0.21875l0 3.15625q0 0.1875 0.203125 0.1875l0.5625 0q0.1875 0 0.1875 -0.1875l0 -1.078125l0.59375 0.203125l0 0.984375q0 0.640625 -0.453125 0.640625l-1.0625 0zm0.59375 -6.015625q-0.421875 -0.5 -0.875 -0.84375l0.453125 -0.453125q0.53125 0.3125 0.890625 0.84375l-0.46875 0.453125zm-7.171875 5.171875q0.53125 -0.8125 0.84375 -1.9375l0.703125 0.28125q0.140625 0.140625 -0.09375 0.171875q-0.28125 1.0625 -0.921875 1.9375l-0.53125 -0.453125zm3.421875 -0.421875q-0.21875 -0.640625 -0.5625 -1.03125l0.59375 -0.3125q0.34375 0.390625 0.59375 0.984375l-0.625 0.359375zm-1.59375 0.90625q0.109375 0 0.109375 -0.09375l0 -2.71875l-0.734375 0l-0.8125 0l0 -2.109375l3.453125 0l0 2.109375l-1.3125 0l0 2.8125q0 0.5625 -0.421875 0.5625l-0.765625 0l-0.078125 -0.5625l0.5625 0zm1.3125 -3.375l0 -0.984375l-2.046875 0l0 0.984375l2.046875 0zm-3.09375 -2.953125l1.78125 0l0 -1.15625l0.5625 0q0.28125 0.03125 0.046875 0.203125l0 0.953125l1.78125 0l0 0.671875l-4.171875 0l0 -0.671875zm9.03125 6.234375q1.375 -0.609375 1.859375 -2.46875l0.78125 0.203125q0.140625 0.140625 -0.109375 0.1875l-0.25 0.625q0.671875 0.78125 1.4375 1.015625l0 -2.390625l-3.4375 0l0 -0.65625l7.59375 0l0 0.65625l-3.453125 0l0 0.8125l2.53125 0l0 0.671875l-2.53125 0l0 1.125l3.484375 0l-0.171875 0.671875l-2.8125 0q-1.90625 0 -2.921875 -1.3125q-0.703125 1.09375 -1.578125 1.515625l-0.421875 -0.65625zm5.90625 -5.84375l0 -0.671875l-3.765625 0l0 0.671875l3.765625 0zm0.703125 1.796875l-5.171875 0l0 -3.03125l5.171875 0l0 3.03125zm-0.703125 -0.5625l0 -0.671875l-3.765625 0l0 0.671875l3.765625 0z" fill-rule="nonzero"/><path fill="#ff00ff" d="m301.8432 157.48457l0 -4.84375l0.734375 0l0 0.734375q0.28125 -0.515625 0.515625 -0.671875q0.25 -0.171875 0.53125 -0.171875q0.421875 0 0.84375 0.265625l-0.28125 0.765625q-0.296875 -0.171875 -0.609375 -0.171875q-0.265625 0 -0.484375 0.15625q-0.203125 0.15625 -0.296875 0.453125q-0.140625 0.4375 -0.140625 0.953125l0 2.53125l-0.8125 0zm2.8094788 -2.421875q0 -1.34375 0.75 -1.984375q0.625 -0.546875 1.515625 -0.546875q1.0 0 1.625 0.65625q0.640625 0.65625 0.640625 1.8125q0 0.9375 -0.28125 1.46875q-0.28125 0.53125 -0.8125 0.828125q-0.53125 0.296875 -1.171875 0.296875q-1.015625 0 -1.640625 -0.640625q-0.625 -0.65625 -0.625 -1.890625zm0.84375 0q0 0.9375 0.40625 1.40625q0.40625 0.453125 1.015625 0.453125q0.609375 0 1.015625 -0.46875q0.40625 -0.46875 0.40625 -1.421875q0 -0.890625 -0.40625 -1.34375q-0.40625 -0.46875 -1.015625 -0.46875q-0.609375 0 -1.015625 0.46875q-0.40625 0.453125 -0.40625 1.375zm4.344116 0q0 -1.34375 0.75 -1.984375q0.625 -0.546875 1.515625 -0.546875q1.0 0 1.625 0.65625q0.640625 0.65625 0.640625 1.8125q0 0.9375 -0.28125 1.46875q-0.28125 0.53125 -0.8125 0.828125q-0.53125 0.296875 -1.171875 0.296875q-1.015625 0 -1.640625 -0.640625q-0.625 -0.65625 -0.625 -1.890625zm0.84375 0q0 0.9375 0.40625 1.40625q0.40625 0.453125 1.015625 0.453125q0.609375 0 1.015625 -0.46875q0.40625 -0.46875 0.40625 -1.421875q0 -0.890625 -0.40625 -1.34375q-0.40625 -0.46875 -1.015625 -0.46875q-0.609375 0 -1.015625 0.46875q-0.40625 0.453125 -0.40625 1.375zm6.437866 1.6875l0.109375 0.71875q-0.34375 0.078125 -0.609375 0.078125q-0.453125 0 -0.703125 -0.140625q-0.234375 -0.140625 -0.34375 -0.359375q-0.09375 -0.234375 -0.09375 -0.984375l0 -2.78125l-0.609375 0l0 -0.640625l0.609375 0l0 -1.1875l0.8125 -0.5l0 1.6875l0.828125 0l0 0.640625l-0.828125 0l0 2.828125q0 0.359375 0.046875 0.46875q0.046875 0.09375 0.140625 0.15625q0.09375 0.046875 0.28125 0.046875q0.140625 0 0.359375 -0.03125z" fill-rule="nonzero"/><path fill="#ff00ff" d="m321.24506 150.8127q0.796875 0.046875 1.484375 0.046875l2.84375 0q-0.140625 1.53125 -0.484375 2.640625q-0.34375 1.109375 -1.265625 2.421875q0.4375 0.578125 1.0625 0.953125q0.625 0.359375 1.421875 0.609375q-0.515625 0.40625 -0.625 0.734375q-0.828125 -0.40625 -1.421875 -0.875q-0.578125 -0.484375 -0.90625 -0.921875q-0.46875 0.546875 -0.984375 0.96875q-0.5 0.421875 -1.421875 0.96875q-0.140625 -0.359375 -0.578125 -0.6875q0.546875 -0.1875 1.234375 -0.578125q0.6875 -0.40625 1.3125 -1.171875q-0.328125 -0.4375 -0.65625 -1.40625q-0.328125 -0.96875 -0.5 -3.046875l-0.515625 0l0 -0.65625zm-3.640625 4.703125q0.546875 -0.578125 0.90625 -1.34375q0.359375 -0.765625 0.625 -1.71875q-0.625 0 -1.203125 0.046875l0 -0.65625q0.65625 0.03125 1.3125 0.03125q0 -1.53125 -0.046875 -2.046875l0.8125 0q-0.078125 0.4375 -0.078125 2.046875q0.546875 0 1.171875 -0.03125l0 0.65625q-0.625 -0.046875 -1.171875 -0.046875l0 1.34375q0.25 -0.140625 0.546875 -0.359375q0.65625 0.875 0.84375 1.3125q-0.40625 0.21875 -0.625 0.4375q-0.1875 -0.515625 -0.765625 -1.171875l0 2.703125q0 0.765625 0.03125 1.640625l-0.796875 0q0.078125 -0.875 0.078125 -1.640625l0 -2.703125q-0.296875 1.03125 -1.09375 2.15625q-0.21875 -0.46875 -0.546875 -0.65625zm4.84375 -4.078125q0.21875 1.890625 0.375 2.53125q0.171875 0.640625 0.5625 1.359375q0.4375 -0.65625 0.84375 -1.609375q0.40625 -0.96875 0.515625 -2.28125l-2.296875 0z" fill-rule="nonzero"/><path fill="#ff00ff" d="m329.44818 155.34395q-0.03125 -1.0625 -0.8125 -2.015625l0.703125 -2.140625l-1.1875 0l0 7.03125l-0.703125 0l0 -7.703125l2.109375 0l0.03125 -0.140625l0.703125 0.46875l-0.109375 0.09375l-0.84375 2.296875q0.921875 1.21875 0.84375 2.203125q-0.0625 1.265625 -0.875 1.265625l-0.765625 0l-0.1875 -0.734375l0.671875 0q0.453125 0 0.421875 -0.625zm3.375 2.171875l-2.8125 0.609375q-0.109375 0.234375 -0.203125 0.09375l-0.25 -0.84375l0.984375 -0.140625l0 -6.78125l3.828125 0l0 3.96875l-1.796875 0q0.109375 0.5 0.421875 1.203125q0.84375 -0.5 1.375 -1.0625l0.640625 0.5q0.140625 0.203125 -0.21875 0.140625q-0.59375 0.515625 -1.40625 0.984375q0.5 0.734375 1.828125 1.375l-0.421875 0.734375q-2.359375 -1.09375 -2.84375 -3.875l-0.703125 0l0 2.703125l1.46875 -0.28125l0.109375 0.671875zm0.84375 -6.390625l-2.421875 0l0 1.015625l2.421875 0l0 -1.015625zm0 1.6875l-2.421875 0l0 0.9375l2.421875 0l0 -0.9375z" fill-rule="nonzero"/></g></svg>